<svg xmlns="http://www.w3.org/2000/svg" width="1120" height="144" viewBox="0 0 1120 144">
<rect width="100%" height="100%" fill="#ffffff"/>
<text x="24" y="34" font-family="Arial" font-size="18" fill="#111827">dePCS proof size component breakdown</text>
<rect x="24.0" y="52" width="10" height="10" fill="#2563eb"/><text x="38.0" y="62" font-family="Arial" font-size="10" fill="#374151">commitment</text>
<rect x="156.0" y="52" width="10" height="10" fill="#059669"/><text x="170.0" y="62" font-family="Arial" font-size="10" fill="#374151">public</text>
<rect x="288.0" y="52" width="10" height="10" fill="#d97706"/><text x="302.0" y="62" font-family="Arial" font-size="10" fill="#374151">eval_commit</text>
<rect x="420.0" y="52" width="10" height="10" fill="#7c3aed"/><text x="434.0" y="62" font-family="Arial" font-size="10" fill="#374151">merkle_roots</text>
<rect x="552.0" y="52" width="10" height="10" fill="#dc2626"/><text x="566.0" y="62" font-family="Arial" font-size="10" fill="#374151">columns</text>
<rect x="684.0" y="52" width="10" height="10" fill="#0891b2"/><text x="698.0" y="62" font-family="Arial" font-size="10" fill="#374151">f2_open</text>
<rect x="816.0" y="52" width="10" height="10" fill="#4b5563"/><text x="830.0" y="62" font-family="Arial" font-size="10" fill="#374151">p10_e1</text>
<rect x="948.0" y="52" width="10" height="10" fill="#f97316"/><text x="962.0" y="62" font-family="Arial" font-size="10" fill="#374151">p10_e2</text>
<rect x="1080.0" y="52" width="10" height="10" fill="#9333ea"/><text x="1094.0" y="62" font-family="Arial" font-size="10" fill="#374151">transcript</text>
<text x="24" y="101.0" font-family="Arial" font-size="12" fill="#111827">protocol11 nv=24 w=2</text>
<rect x="270.0" y="86.0" width="3.1" height="20" fill="#2563eb"/>
<rect x="273.1" y="86.0" width="0.3" height="20" fill="#059669"/>
<rect x="273.4" y="86.0" width="0.0" height="20" fill="#d97706"/>
<rect x="273.4" y="86.0" width="242.1" height="20" fill="#7c3aed"/>
<rect x="515.5" y="86.0" width="484.2" height="20" fill="#dc2626"/>
<rect x="999.7" y="86.0" width="0.0" height="20" fill="#0891b2"/>
<rect x="999.7" y="86.0" width="0.1" height="20" fill="#4b5563"/>
<rect x="999.9" y="86.0" width="0.1" height="20" fill="#f97316"/>
<rect x="1000.0" y="86.0" width="0.0" height="20" fill="#9333ea"/>
<text x="1008.0" y="101.0" font-family="Arial" font-size="12" fill="#111827">993.82 KiB</text>
</svg>
