<svg xmlns="http://www.w3.org/2000/svg" width="980" height="560" viewBox="0 0 980 560">
<style>
text { font-family: Arial, Helvetica, sans-serif; fill: #111827; }
.title { font-size: 21px; font-weight: 700; }
.subtitle { font-size: 12px; fill: #4b5563; }
.axis-label { font-size: 13px; font-weight: 600; fill: #111827; }
.tick-label { font-size: 11px; fill: #374151; }
.grid { stroke: #e5e7eb; stroke-width: 1; }
.axis { stroke: #111827; stroke-width: 1.2; }
.series-line { stroke-width: 2.4; stroke-linecap: round; stroke-linejoin: round; }
.ideal-line { stroke: #6b7280; stroke-width: 1.8; stroke-dasharray: 6 5; stroke-linecap: round; }
.marker { stroke-width: 2; }
.legend-entry text { font-size: 12px; fill: #111827; }
</style>
<rect width="100%" height="100%" fill="#ffffff" />
<text class="title" x="92" y="34">Verify time by circuit size</text>
<text class="subtitle" x="92" y="54">Verified positive runs. Circuit size is nv = 2^n; lines connect measured runs only.</text>
<line class="axis" x1="92.0" y1="436.0" x2="732.0" y2="436.0" />
<line class="axis" x1="92.0" y1="76.0" x2="92.0" y2="436.0" />
<text class="axis-label" x="412.0" y="526" text-anchor="middle">Circuit exponent n (nv = 2^n)</text>
<text class="axis-label" x="24" y="256.0" text-anchor="middle" transform="rotate(-90 24,256.0)">Verifier time (ms)</text>
<line class="grid" x1="92.0" y1="436.0" x2="732.0" y2="436.0" />
<text class="tick-label" x="82.0" y="440.0" text-anchor="end">0</text>
<line class="grid" x1="92.0" y1="316.0" x2="732.0" y2="316.0" />
<text class="tick-label" x="82.0" y="320.0" text-anchor="end">5</text>
<line class="grid" x1="92.0" y1="196.0" x2="732.0" y2="196.0" />
<text class="tick-label" x="82.0" y="200.0" text-anchor="end">10</text>
<line class="grid" x1="92.0" y1="76.0" x2="732.0" y2="76.0" />
<text class="tick-label" x="82.0" y="80.0" text-anchor="end">15</text>
<line class="grid" x1="92.0" y1="76.0" x2="92.0" y2="436.0" />
<line class="axis" x1="92.0" y1="436.0" x2="92.0" y2="441.0" />
<text class="tick-label" x="92.0" y="455.0" text-anchor="middle"><tspan x="92.0">n=2</tspan><tspan x="92.0" dy="13">nv=4</tspan></text>
<line class="grid" x1="732.0" y1="76.0" x2="732.0" y2="436.0" />
<line class="axis" x1="732.0" y1="436.0" x2="732.0" y2="441.0" />
<text class="tick-label" x="732.0" y="455.0" text-anchor="middle"><tspan x="732.0">n=3</tspan><tspan x="732.0" dy="13">nv=8</tspan></text>
<polyline class="series-line" fill="none" stroke="#0072B2" points="92.0,282.2 732.0,163.2" />
<circle class="marker" cx="92.0" cy="282.2" r="4.2" fill="#ffffff" stroke="#0072B2" />
<circle class="marker" cx="732.0" cy="163.2" r="4.2" fill="#ffffff" stroke="#0072B2" />
<g class="legend-entry" transform="translate(765,88)"><line x1="0" y1="0" x2="24" y2="0" stroke="#0072B2" stroke-width="2.4"/><circle cx="12" cy="0" r="3.8" fill="#ffffff" stroke="#0072B2" stroke-width="2"/><text x="34" y="4">Plonkish w=1</text></g>
<polyline class="series-line" fill="none" stroke="#D55E00" points="92.0,283.1 732.0,112.2" />
<circle class="marker" cx="92.0" cy="283.1" r="4.2" fill="#ffffff" stroke="#D55E00" />
<circle class="marker" cx="732.0" cy="112.2" r="4.2" fill="#ffffff" stroke="#D55E00" />
<g class="legend-entry" transform="translate(765,112)"><line x1="0" y1="0" x2="24" y2="0" stroke="#D55E00" stroke-width="2.4"/><circle cx="12" cy="0" r="3.8" fill="#ffffff" stroke="#D55E00" stroke-width="2"/><text x="34" y="4">Plonkish w=2</text></g>
<polyline class="series-line" fill="none" stroke="#009E73" points="92.0,220.8 732.0,133.7" />
<circle class="marker" cx="92.0" cy="220.8" r="4.2" fill="#ffffff" stroke="#009E73" />
<circle class="marker" cx="732.0" cy="133.7" r="4.2" fill="#ffffff" stroke="#009E73" />
<g class="legend-entry" transform="translate(765,136)"><line x1="0" y1="0" x2="24" y2="0" stroke="#009E73" stroke-width="2.4"/><circle cx="12" cy="0" r="3.8" fill="#ffffff" stroke="#009E73" stroke-width="2"/><text x="34" y="4">R1CS w=1</text></g>
<polyline class="series-line" fill="none" stroke="#CC79A7" points="92.0,199.6 732.0,103.9" />
<circle class="marker" cx="92.0" cy="199.6" r="4.2" fill="#ffffff" stroke="#CC79A7" />
<circle class="marker" cx="732.0" cy="103.9" r="4.2" fill="#ffffff" stroke="#CC79A7" />
<g class="legend-entry" transform="translate(765,160)"><line x1="0" y1="0" x2="24" y2="0" stroke="#CC79A7" stroke-width="2.4"/><circle cx="12" cy="0" r="3.8" fill="#ffffff" stroke="#CC79A7" stroke-width="2"/><text x="34" y="4">R1CS w=2</text></g>
</svg>
