<svg xmlns="http://www.w3.org/2000/svg" width="980" height="1280" viewBox="0 0 980 1280">
<rect width="100%" height="100%" fill="#ffffff"/>
<text x="24" y="32" font-family="Arial" font-size="18" fill="#111827">dePCS BaseFold vs DeepFold vs external PCS verify time</text>
<text x="24" y="54" font-family="Arial" font-size="12" fill="#4b5563">Verifier time by nv and node count; blocked external rows are omitted.</text>
<text x="24" y="101" font-family="Arial" font-size="12" fill="#111827">LigeSIS dLigesis nodes=2 nv=18</text>
<rect x="260" y="84" width="1.7" height="20" fill="#d97706"/>
<text x="269.7" y="99" font-family="Arial" font-size="12" fill="#111827">14.498 ms</text>
<text x="24" y="135" font-family="Arial" font-size="12" fill="#111827">dFRIttata-PCS nodes=2 nv=18</text>
<rect x="260" y="118" width="1.0" height="20" fill="#d97706"/>
<text x="269.0" y="133" font-family="Arial" font-size="12" fill="#111827">8.816 ms</text>
<text x="24" y="169" font-family="Arial" font-size="12" fill="#111827">dPIP-FRI-PCS nodes=2 nv=18</text>
<rect x="260" y="152" width="0.2" height="20" fill="#d97706"/>
<text x="268.2" y="167" font-family="Arial" font-size="12" fill="#111827">1.624 ms</text>
<text x="24" y="203" font-family="Arial" font-size="12" fill="#111827">dePCS_Basefold nodes=2 nv=18</text>
<rect x="260" y="186" width="5.2" height="20" fill="#2563eb"/>
<text x="273.2" y="201" font-family="Arial" font-size="12" fill="#111827">45.242 ms</text>
<text x="24" y="237" font-family="Arial" font-size="12" fill="#111827">dePCS_Deepfold nodes=2 nv=18</text>
<rect x="260" y="220" width="1.9" height="20" fill="#2563eb"/>
<text x="269.9" y="235" font-family="Arial" font-size="12" fill="#111827">16.178 ms</text>
<text x="24" y="271" font-family="Arial" font-size="12" fill="#111827">LigeSIS dLigesis nodes=2 nv=19</text>
<rect x="260" y="254" width="2.2" height="20" fill="#d97706"/>
<text x="270.2" y="269" font-family="Arial" font-size="12" fill="#111827">19.200 ms</text>
<text x="24" y="305" font-family="Arial" font-size="12" fill="#111827">dFRIttata-PCS nodes=2 nv=19</text>
<rect x="260" y="288" width="1.1" height="20" fill="#d97706"/>
<text x="269.1" y="303" font-family="Arial" font-size="12" fill="#111827">9.786 ms</text>
<text x="24" y="339" font-family="Arial" font-size="12" fill="#111827">dPIP-FRI-PCS nodes=2 nv=19</text>
<rect x="260" y="322" width="0.2" height="20" fill="#d97706"/>
<text x="268.2" y="337" font-family="Arial" font-size="12" fill="#111827">1.758 ms</text>
<text x="24" y="373" font-family="Arial" font-size="12" fill="#111827">dePCS_Basefold nodes=2 nv=19</text>
<rect x="260" y="356" width="10.4" height="20" fill="#2563eb"/>
<text x="278.4" y="371" font-family="Arial" font-size="12" fill="#111827">89.419 ms</text>
<text x="24" y="407" font-family="Arial" font-size="12" fill="#111827">dePCS_Deepfold nodes=2 nv=19</text>
<rect x="260" y="390" width="3.0" height="20" fill="#2563eb"/>
<text x="271.0" y="405" font-family="Arial" font-size="12" fill="#111827">26.211 ms</text>
<text x="24" y="441" font-family="Arial" font-size="12" fill="#111827">LigeSIS dLigesis nodes=2 nv=20</text>
<rect x="260" y="424" width="3.2" height="20" fill="#d97706"/>
<text x="271.2" y="439" font-family="Arial" font-size="12" fill="#111827">27.531 ms</text>
<text x="24" y="475" font-family="Arial" font-size="12" fill="#111827">dFRIttata-PCS nodes=2 nv=20</text>
<rect x="260" y="458" width="1.4" height="20" fill="#d97706"/>
<text x="269.4" y="473" font-family="Arial" font-size="12" fill="#111827">12.107 ms</text>
<text x="24" y="509" font-family="Arial" font-size="12" fill="#111827">dPIP-FRI-PCS nodes=2 nv=20</text>
<rect x="260" y="492" width="0.2" height="20" fill="#d97706"/>
<text x="268.2" y="507" font-family="Arial" font-size="12" fill="#111827">1.988 ms</text>
<text x="24" y="543" font-family="Arial" font-size="12" fill="#111827">dePCS_Basefold nodes=2 nv=20</text>
<rect x="260" y="526" width="41.3" height="20" fill="#2563eb"/>
<text x="309.3" y="541" font-family="Arial" font-size="12" fill="#111827">356.378 ms</text>
<text x="24" y="577" font-family="Arial" font-size="12" fill="#111827">dePCS_Deepfold nodes=2 nv=20</text>
<rect x="260" y="560" width="5.5" height="20" fill="#2563eb"/>
<text x="273.5" y="575" font-family="Arial" font-size="12" fill="#111827">47.602 ms</text>
<text x="24" y="611" font-family="Arial" font-size="12" fill="#111827">LigeSIS dLigesis nodes=2 nv=21</text>
<rect x="260" y="594" width="4.5" height="20" fill="#d97706"/>
<text x="272.5" y="609" font-family="Arial" font-size="12" fill="#111827">38.627 ms</text>
<text x="24" y="645" font-family="Arial" font-size="12" fill="#111827">dFRIttata-PCS nodes=2 nv=21</text>
<rect x="260" y="628" width="1.3" height="20" fill="#d97706"/>
<text x="269.3" y="643" font-family="Arial" font-size="12" fill="#111827">11.616 ms</text>
<text x="24" y="679" font-family="Arial" font-size="12" fill="#111827">dPIP-FRI-PCS nodes=2 nv=21</text>
<rect x="260" y="662" width="0.3" height="20" fill="#d97706"/>
<text x="268.3" y="677" font-family="Arial" font-size="12" fill="#111827">2.266 ms</text>
<text x="24" y="713" font-family="Arial" font-size="12" fill="#111827">dePCS_Basefold nodes=2 nv=21</text>
<rect x="260" y="696" width="81.7" height="20" fill="#2563eb"/>
<text x="349.7" y="711" font-family="Arial" font-size="12" fill="#111827">705.427 ms</text>
<text x="24" y="747" font-family="Arial" font-size="12" fill="#111827">dePCS_Deepfold nodes=2 nv=21</text>
<rect x="260" y="730" width="9.7" height="20" fill="#2563eb"/>
<text x="277.7" y="745" font-family="Arial" font-size="12" fill="#111827">83.997 ms</text>
<text x="24" y="781" font-family="Arial" font-size="12" fill="#111827">LigeSIS dLigesis nodes=2 nv=22</text>
<rect x="260" y="764" width="6.4" height="20" fill="#d97706"/>
<text x="274.4" y="779" font-family="Arial" font-size="12" fill="#111827">55.620 ms</text>
<text x="24" y="815" font-family="Arial" font-size="12" fill="#111827">dFRIttata-PCS nodes=2 nv=22</text>
<rect x="260" y="798" width="1.5" height="20" fill="#d97706"/>
<text x="269.5" y="813" font-family="Arial" font-size="12" fill="#111827">13.119 ms</text>
<text x="24" y="849" font-family="Arial" font-size="12" fill="#111827">dPIP-FRI-PCS nodes=2 nv=22</text>
<rect x="260" y="832" width="0.3" height="20" fill="#d97706"/>
<text x="268.3" y="847" font-family="Arial" font-size="12" fill="#111827">2.630 ms</text>
<text x="24" y="883" font-family="Arial" font-size="12" fill="#111827">dePCS_Basefold nodes=2 nv=22</text>
<rect x="260" y="866" width="159.6" height="20" fill="#2563eb"/>
<text x="427.6" y="881" font-family="Arial" font-size="12" fill="#111827">1378.028 ms</text>
<text x="24" y="917" font-family="Arial" font-size="12" fill="#111827">dePCS_Deepfold nodes=2 nv=22</text>
<rect x="260" y="900" width="41.5" height="20" fill="#2563eb"/>
<text x="309.5" y="915" font-family="Arial" font-size="12" fill="#111827">358.510 ms</text>
<text x="24" y="951" font-family="Arial" font-size="12" fill="#111827">LigeSIS dLigesis nodes=2 nv=23</text>
<rect x="260" y="934" width="9.3" height="20" fill="#d97706"/>
<text x="277.3" y="949" font-family="Arial" font-size="12" fill="#111827">80.491 ms</text>
<text x="24" y="985" font-family="Arial" font-size="12" fill="#111827">dFRIttata-PCS nodes=2 nv=23</text>
<rect x="260" y="968" width="1.6" height="20" fill="#d97706"/>
<text x="269.6" y="983" font-family="Arial" font-size="12" fill="#111827">14.110 ms</text>
<text x="24" y="1019" font-family="Arial" font-size="12" fill="#111827">dPIP-FRI-PCS nodes=2 nv=23</text>
<rect x="260" y="1002" width="0.3" height="20" fill="#d97706"/>
<text x="268.3" y="1017" font-family="Arial" font-size="12" fill="#111827">2.867 ms</text>
<text x="24" y="1053" font-family="Arial" font-size="12" fill="#111827">dePCS_Basefold nodes=2 nv=23</text>
<rect x="260" y="1036" width="148.8" height="20" fill="#2563eb"/>
<text x="416.8" y="1051" font-family="Arial" font-size="12" fill="#111827">1285.041 ms</text>
<text x="24" y="1087" font-family="Arial" font-size="12" fill="#111827">dePCS_Deepfold nodes=2 nv=23</text>
<rect x="260" y="1070" width="81.9" height="20" fill="#2563eb"/>
<text x="349.9" y="1085" font-family="Arial" font-size="12" fill="#111827">707.337 ms</text>
<text x="24" y="1121" font-family="Arial" font-size="12" fill="#111827">LigeSIS dLigesis nodes=2 nv=24</text>
<rect x="260" y="1104" width="13.4" height="20" fill="#d97706"/>
<text x="281.4" y="1119" font-family="Arial" font-size="12" fill="#111827">115.301 ms</text>
<text x="24" y="1155" font-family="Arial" font-size="12" fill="#111827">dFRIttata-PCS nodes=2 nv=24</text>
<rect x="260" y="1138" width="1.7" height="20" fill="#d97706"/>
<text x="269.7" y="1153" font-family="Arial" font-size="12" fill="#111827">14.600 ms</text>
<text x="24" y="1189" font-family="Arial" font-size="12" fill="#111827">dPIP-FRI-PCS nodes=2 nv=24</text>
<rect x="260" y="1172" width="0.4" height="20" fill="#d97706"/>
<text x="268.4" y="1187" font-family="Arial" font-size="12" fill="#111827">3.640 ms</text>
<text x="24" y="1223" font-family="Arial" font-size="12" fill="#111827">dePCS_Basefold nodes=2 nv=24</text>
<rect x="260" y="1206" width="640.0" height="20" fill="#2563eb"/>
<text x="908.0" y="1221" font-family="Arial" font-size="12" fill="#111827">5525.225 ms</text>
<text x="24" y="1257" font-family="Arial" font-size="12" fill="#111827">dePCS_Deepfold nodes=2 nv=24</text>
<rect x="260" y="1240" width="158.7" height="20" fill="#2563eb"/>
<text x="426.7" y="1255" font-family="Arial" font-size="12" fill="#111827">1369.724 ms</text>
</svg>
