<svg xmlns="http://www.w3.org/2000/svg" width="980" height="1280" viewBox="0 0 980 1280">
<rect width="100%" height="100%" fill="#ffffff"/>
<text x="24" y="32" font-family="Arial" font-size="18" fill="#111827">dePCS BaseFold vs DeepFold vs external PCS prover time</text>
<text x="24" y="54" font-family="Arial" font-size="12" fill="#4b5563">Commit + open time by nv and node count; blocked external rows are omitted.</text>
<text x="24" y="101" font-family="Arial" font-size="12" fill="#111827">LigeSIS dLigesis nodes=2 nv=18</text>
<rect x="260" y="84" width="2.1" height="20" fill="#d97706"/>
<text x="270.1" y="99" font-family="Arial" font-size="12" fill="#111827">374.348 ms</text>
<text x="24" y="135" font-family="Arial" font-size="12" fill="#111827">dFRIttata-PCS nodes=2 nv=18</text>
<rect x="260" y="118" width="0.8" height="20" fill="#d97706"/>
<text x="268.8" y="133" font-family="Arial" font-size="12" fill="#111827">134.520 ms</text>
<text x="24" y="169" font-family="Arial" font-size="12" fill="#111827">dPIP-FRI-PCS nodes=2 nv=18</text>
<rect x="260" y="152" width="0.4" height="20" fill="#d97706"/>
<text x="268.4" y="167" font-family="Arial" font-size="12" fill="#111827">75.649 ms</text>
<text x="24" y="203" font-family="Arial" font-size="12" fill="#111827">dePCS_Basefold nodes=2 nv=18</text>
<rect x="260" y="186" width="2.8" height="20" fill="#2563eb"/>
<text x="270.8" y="201" font-family="Arial" font-size="12" fill="#111827">492.208 ms</text>
<text x="24" y="237" font-family="Arial" font-size="12" fill="#111827">dePCS_Deepfold nodes=2 nv=18</text>
<rect x="260" y="220" width="0.8" height="20" fill="#2563eb"/>
<text x="268.8" y="235" font-family="Arial" font-size="12" fill="#111827">147.036 ms</text>
<text x="24" y="271" font-family="Arial" font-size="12" fill="#111827">LigeSIS dLigesis nodes=2 nv=19</text>
<rect x="260" y="254" width="2.6" height="20" fill="#d97706"/>
<text x="270.6" y="269" font-family="Arial" font-size="12" fill="#111827">469.279 ms</text>
<text x="24" y="305" font-family="Arial" font-size="12" fill="#111827">dFRIttata-PCS nodes=2 nv=19</text>
<rect x="260" y="288" width="1.5" height="20" fill="#d97706"/>
<text x="269.5" y="303" font-family="Arial" font-size="12" fill="#111827">265.674 ms</text>
<text x="24" y="339" font-family="Arial" font-size="12" fill="#111827">dPIP-FRI-PCS nodes=2 nv=19</text>
<rect x="260" y="322" width="0.7" height="20" fill="#d97706"/>
<text x="268.7" y="337" font-family="Arial" font-size="12" fill="#111827">128.898 ms</text>
<text x="24" y="373" font-family="Arial" font-size="12" fill="#111827">dePCS_Basefold nodes=2 nv=19</text>
<rect x="260" y="356" width="5.5" height="20" fill="#2563eb"/>
<text x="273.5" y="371" font-family="Arial" font-size="12" fill="#111827">970.486 ms</text>
<text x="24" y="407" font-family="Arial" font-size="12" fill="#111827">dePCS_Deepfold nodes=2 nv=19</text>
<rect x="260" y="390" width="1.5" height="20" fill="#2563eb"/>
<text x="269.5" y="405" font-family="Arial" font-size="12" fill="#111827">274.577 ms</text>
<text x="24" y="441" font-family="Arial" font-size="12" fill="#111827">LigeSIS dLigesis nodes=2 nv=20</text>
<rect x="260" y="424" width="4.6" height="20" fill="#d97706"/>
<text x="272.6" y="439" font-family="Arial" font-size="12" fill="#111827">824.346 ms</text>
<text x="24" y="475" font-family="Arial" font-size="12" fill="#111827">dFRIttata-PCS nodes=2 nv=20</text>
<rect x="260" y="458" width="3.1" height="20" fill="#d97706"/>
<text x="271.1" y="473" font-family="Arial" font-size="12" fill="#111827">548.173 ms</text>
<text x="24" y="509" font-family="Arial" font-size="12" fill="#111827">dPIP-FRI-PCS nodes=2 nv=20</text>
<rect x="260" y="492" width="1.4" height="20" fill="#d97706"/>
<text x="269.4" y="507" font-family="Arial" font-size="12" fill="#111827">255.653 ms</text>
<text x="24" y="543" font-family="Arial" font-size="12" fill="#111827">dePCS_Basefold nodes=2 nv=20</text>
<rect x="260" y="526" width="11.7" height="20" fill="#2563eb"/>
<text x="279.7" y="541" font-family="Arial" font-size="12" fill="#111827">2089.836 ms</text>
<text x="24" y="577" font-family="Arial" font-size="12" fill="#111827">dePCS_Deepfold nodes=2 nv=20</text>
<rect x="260" y="560" width="3.0" height="20" fill="#2563eb"/>
<text x="271.0" y="575" font-family="Arial" font-size="12" fill="#111827">531.193 ms</text>
<text x="24" y="611" font-family="Arial" font-size="12" fill="#111827">LigeSIS dLigesis nodes=2 nv=21</text>
<rect x="260" y="594" width="5.9" height="20" fill="#d97706"/>
<text x="273.9" y="609" font-family="Arial" font-size="12" fill="#111827">1054.220 ms</text>
<text x="24" y="645" font-family="Arial" font-size="12" fill="#111827">dFRIttata-PCS nodes=2 nv=21</text>
<rect x="260" y="628" width="6.1" height="20" fill="#d97706"/>
<text x="274.1" y="643" font-family="Arial" font-size="12" fill="#111827">1091.447 ms</text>
<text x="24" y="679" font-family="Arial" font-size="12" fill="#111827">dPIP-FRI-PCS nodes=2 nv=21</text>
<rect x="260" y="662" width="2.8" height="20" fill="#d97706"/>
<text x="270.8" y="677" font-family="Arial" font-size="12" fill="#111827">503.507 ms</text>
<text x="24" y="713" font-family="Arial" font-size="12" fill="#111827">dePCS_Basefold nodes=2 nv=21</text>
<rect x="260" y="696" width="30.2" height="20" fill="#2563eb"/>
<text x="298.2" y="711" font-family="Arial" font-size="12" fill="#111827">5371.102 ms</text>
<text x="24" y="747" font-family="Arial" font-size="12" fill="#111827">dePCS_Deepfold nodes=2 nv=21</text>
<rect x="260" y="730" width="6.4" height="20" fill="#2563eb"/>
<text x="274.4" y="745" font-family="Arial" font-size="12" fill="#111827">1144.959 ms</text>
<text x="24" y="781" font-family="Arial" font-size="12" fill="#111827">LigeSIS dLigesis nodes=2 nv=22</text>
<rect x="260" y="764" width="9.4" height="20" fill="#d97706"/>
<text x="277.4" y="779" font-family="Arial" font-size="12" fill="#111827">1679.951 ms</text>
<text x="24" y="815" font-family="Arial" font-size="12" fill="#111827">dFRIttata-PCS nodes=2 nv=22</text>
<rect x="260" y="798" width="12.2" height="20" fill="#d97706"/>
<text x="280.2" y="813" font-family="Arial" font-size="12" fill="#111827">2177.582 ms</text>
<text x="24" y="849" font-family="Arial" font-size="12" fill="#111827">dPIP-FRI-PCS nodes=2 nv=22</text>
<rect x="260" y="832" width="6.0" height="20" fill="#d97706"/>
<text x="274.0" y="847" font-family="Arial" font-size="12" fill="#111827">1062.998 ms</text>
<text x="24" y="883" font-family="Arial" font-size="12" fill="#111827">dePCS_Basefold nodes=2 nv=22</text>
<rect x="260" y="866" width="82.9" height="20" fill="#2563eb"/>
<text x="350.9" y="881" font-family="Arial" font-size="12" fill="#111827">14741.211 ms</text>
<text x="24" y="917" font-family="Arial" font-size="12" fill="#111827">dePCS_Deepfold nodes=2 nv=22</text>
<rect x="260" y="900" width="12.6" height="20" fill="#2563eb"/>
<text x="280.6" y="915" font-family="Arial" font-size="12" fill="#111827">2235.002 ms</text>
<text x="24" y="951" font-family="Arial" font-size="12" fill="#111827">LigeSIS dLigesis nodes=2 nv=23</text>
<rect x="260" y="934" width="13.6" height="20" fill="#d97706"/>
<text x="281.6" y="949" font-family="Arial" font-size="12" fill="#111827">2420.502 ms</text>
<text x="24" y="985" font-family="Arial" font-size="12" fill="#111827">dFRIttata-PCS nodes=2 nv=23</text>
<rect x="260" y="968" width="24.4" height="20" fill="#d97706"/>
<text x="292.4" y="983" font-family="Arial" font-size="12" fill="#111827">4344.016 ms</text>
<text x="24" y="1019" font-family="Arial" font-size="12" fill="#111827">dPIP-FRI-PCS nodes=2 nv=23</text>
<rect x="260" y="1002" width="12.9" height="20" fill="#d97706"/>
<text x="280.9" y="1017" font-family="Arial" font-size="12" fill="#111827">2288.226 ms</text>
<text x="24" y="1053" font-family="Arial" font-size="12" fill="#111827">dePCS_Basefold nodes=2 nv=23</text>
<rect x="260" y="1036" width="205.6" height="20" fill="#2563eb"/>
<text x="473.6" y="1051" font-family="Arial" font-size="12" fill="#111827">36572.542 ms</text>
<text x="24" y="1087" font-family="Arial" font-size="12" fill="#111827">dePCS_Deepfold nodes=2 nv=23</text>
<rect x="260" y="1070" width="35.5" height="20" fill="#2563eb"/>
<text x="303.5" y="1085" font-family="Arial" font-size="12" fill="#111827">6319.267 ms</text>
<text x="24" y="1121" font-family="Arial" font-size="12" fill="#111827">LigeSIS dLigesis nodes=2 nv=24</text>
<rect x="260" y="1104" width="24.1" height="20" fill="#d97706"/>
<text x="292.1" y="1119" font-family="Arial" font-size="12" fill="#111827">4283.595 ms</text>
<text x="24" y="1155" font-family="Arial" font-size="12" fill="#111827">dFRIttata-PCS nodes=2 nv=24</text>
<rect x="260" y="1138" width="48.4" height="20" fill="#d97706"/>
<text x="316.4" y="1153" font-family="Arial" font-size="12" fill="#111827">8604.523 ms</text>
<text x="24" y="1189" font-family="Arial" font-size="12" fill="#111827">dPIP-FRI-PCS nodes=2 nv=24</text>
<rect x="260" y="1172" width="23.0" height="20" fill="#d97706"/>
<text x="291.0" y="1187" font-family="Arial" font-size="12" fill="#111827">4084.100 ms</text>
<text x="24" y="1223" font-family="Arial" font-size="12" fill="#111827">dePCS_Basefold nodes=2 nv=24</text>
<rect x="260" y="1206" width="640.0" height="20" fill="#2563eb"/>
<text x="908.0" y="1221" font-family="Arial" font-size="12" fill="#111827">113831.172 ms</text>
<text x="24" y="1257" font-family="Arial" font-size="12" fill="#111827">dePCS_Deepfold nodes=2 nv=24</text>
<rect x="260" y="1240" width="97.3" height="20" fill="#2563eb"/>
<text x="365.3" y="1255" font-family="Arial" font-size="12" fill="#111827">17300.574 ms</text>
</svg>
