<svg xmlns="http://www.w3.org/2000/svg" width="980" height="502" viewBox="0 0 980 502">
<title>PCS local commit time by size</title>
<!-- PCS chart uses stroke-dasharray for series distinction. -->
<rect width="100%" height="100%" fill="#ffffff"/>
<text x="490" y="32" text-anchor="middle" font-family="Arial" font-size="20">PCS local commit time by size</text>
<text x="18" y="210" transform="rotate(-90 18 210)" text-anchor="middle" font-family="Arial" font-size="13">Commit time (ms)</text>
<text x="520" y="402" text-anchor="middle" font-family="Arial" font-size="13">PCS polynomial exponent n in N=2^n</text>
<line x1="86" y1="350" x2="940" y2="350" stroke="#444"/>
<line x1="86" y1="70" x2="86" y2="350" stroke="#444"/>
<line x1="86" y1="350.0" x2="940" y2="350.0" stroke="#e5e7eb"/>
<text x="76" y="351.0" text-anchor="end" dominant-baseline="middle" font-family="Arial" font-size="12">10^-1</text>
<line x1="86" y1="280.0" x2="940" y2="280.0" stroke="#e5e7eb"/>
<text x="76" y="281.0" text-anchor="end" dominant-baseline="middle" font-family="Arial" font-size="12">10^0</text>
<line x1="86" y1="210.0" x2="940" y2="210.0" stroke="#e5e7eb"/>
<text x="76" y="211.0" text-anchor="end" dominant-baseline="middle" font-family="Arial" font-size="12">10^1</text>
<line x1="86" y1="140.0" x2="940" y2="140.0" stroke="#e5e7eb"/>
<text x="76" y="141.0" text-anchor="end" dominant-baseline="middle" font-family="Arial" font-size="12">10^2</text>
<line x1="86" y1="70.0" x2="940" y2="70.0" stroke="#e5e7eb"/>
<text x="76" y="71.0" text-anchor="end" dominant-baseline="middle" font-family="Arial" font-size="12">10^3</text>
<text x="86.0" y="374" text-anchor="middle" font-family="Arial" font-size="12">n=4</text>
<text x="157.2" y="374" text-anchor="middle" font-family="Arial" font-size="12">n=5</text>
<text x="228.3" y="374" text-anchor="middle" font-family="Arial" font-size="12">n=6</text>
<text x="299.5" y="374" text-anchor="middle" font-family="Arial" font-size="12">n=7</text>
<text x="370.7" y="374" text-anchor="middle" font-family="Arial" font-size="12">n=8</text>
<text x="441.8" y="374" text-anchor="middle" font-family="Arial" font-size="12">n=9</text>
<text x="513.0" y="374" text-anchor="middle" font-family="Arial" font-size="12">n=10</text>
<text x="584.2" y="374" text-anchor="middle" font-family="Arial" font-size="12">n=11</text>
<text x="655.3" y="374" text-anchor="middle" font-family="Arial" font-size="12">n=12</text>
<text x="726.5" y="374" text-anchor="middle" font-family="Arial" font-size="12">n=13</text>
<text x="797.7" y="374" text-anchor="middle" font-family="Arial" font-size="12">n=14</text>
<text x="868.8" y="374" text-anchor="middle" font-family="Arial" font-size="12">n=15</text>
<text x="940.0" y="374" text-anchor="middle" font-family="Arial" font-size="12">n=16</text>
<polyline fill="none" stroke="#0072B2" stroke-width="2" stroke-dasharray="none" points="86.0,291.2 157.2,282.3 228.3,277.7 299.5,265.9 370.7,262.2 441.8,248.4 513.0,234.3 584.2,216.3 655.3,201.0 726.5,179.0 797.7,161.4 868.8,140.2 940.0,116.7"/>
<circle cx="86.0" cy="291.2" r="4" fill="#0072B2"><title>local compact w1 n=4: 0.693</title></circle>
<circle cx="157.2" cy="282.3" r="4" fill="#0072B2"><title>local compact w1 n=5: 0.927</title></circle>
<circle cx="228.3" cy="277.7" r="4" fill="#0072B2"><title>local compact w1 n=6: 1.078</title></circle>
<circle cx="299.5" cy="265.9" r="4" fill="#0072B2"><title>local compact w1 n=7: 1.591</title></circle>
<circle cx="370.7" cy="262.2" r="4" fill="#0072B2"><title>local compact w1 n=8: 1.799</title></circle>
<circle cx="441.8" cy="248.4" r="4" fill="#0072B2"><title>local compact w1 n=9: 2.830</title></circle>
<circle cx="513.0" cy="234.3" r="4" fill="#0072B2"><title>local compact w1 n=10: 4.499</title></circle>
<circle cx="584.2" cy="216.3" r="4" fill="#0072B2"><title>local compact w1 n=11: 8.131</title></circle>
<circle cx="655.3" cy="201.0" r="4" fill="#0072B2"><title>local compact w1 n=12: 13.427</title></circle>
<circle cx="726.5" cy="179.0" r="4" fill="#0072B2"><title>local compact w1 n=13: 27.714</title></circle>
<circle cx="797.7" cy="161.4" r="4" fill="#0072B2"><title>local compact w1 n=14: 49.454</title></circle>
<circle cx="868.8" cy="140.2" r="4" fill="#0072B2"><title>local compact w1 n=15: 99.302</title></circle>
<circle cx="940.0" cy="116.7" r="4" fill="#0072B2"><title>local compact w1 n=16: 215.377</title></circle>
<line x1="90.0" y1="430.0" x2="118.0" y2="430.0" stroke="#0072B2" stroke-width="2" stroke-dasharray="none"/>
<circle cx="104.0" cy="430.0" r="3" fill="#0072B2"/>
<text x="126.0" y="430.0" font-family="Arial" font-size="12" dominant-baseline="middle" fill="#111827">local compact w1</text>
<polyline fill="none" stroke="#D55E00" stroke-width="2" stroke-dasharray="6 4" points="86.0,303.4 157.2,289.6 228.3,285.1 299.5,267.3 370.7,264.1 441.8,247.5 513.0,235.7 584.2,216.9 655.3,195.3 726.5,177.6 797.7,156.6 868.8,140.0 940.0,117.4"/>
<circle cx="86.0" cy="303.4" r="4" fill="#D55E00"><title>local compact w2 n=4: 0.463</title></circle>
<circle cx="157.2" cy="289.6" r="4" fill="#D55E00"><title>local compact w2 n=5: 0.729</title></circle>
<circle cx="228.3" cy="285.1" r="4" fill="#D55E00"><title>local compact w2 n=6: 0.845</title></circle>
<circle cx="299.5" cy="267.3" r="4" fill="#D55E00"><title>local compact w2 n=7: 1.518</title></circle>
<circle cx="370.7" cy="264.1" r="4" fill="#D55E00"><title>local compact w2 n=8: 1.688</title></circle>
<circle cx="441.8" cy="247.5" r="4" fill="#D55E00"><title>local compact w2 n=9: 2.910</title></circle>
<circle cx="513.0" cy="235.7" r="4" fill="#D55E00"><title>local compact w2 n=10: 4.289</title></circle>
<circle cx="584.2" cy="216.9" r="4" fill="#D55E00"><title>local compact w2 n=11: 7.963</title></circle>
<circle cx="655.3" cy="195.3" r="4" fill="#D55E00"><title>local compact w2 n=12: 16.204</title></circle>
<circle cx="726.5" cy="177.6" r="4" fill="#D55E00"><title>local compact w2 n=13: 29.003</title></circle>
<circle cx="797.7" cy="156.6" r="4" fill="#D55E00"><title>local compact w2 n=14: 57.979</title></circle>
<circle cx="868.8" cy="140.0" r="4" fill="#D55E00"><title>local compact w2 n=15: 100.039</title></circle>
<circle cx="940.0" cy="117.4" r="4" fill="#D55E00"><title>local compact w2 n=16: 210.538</title></circle>
<line x1="310.0" y1="430.0" x2="338.0" y2="430.0" stroke="#D55E00" stroke-width="2" stroke-dasharray="6 4"/>
<circle cx="324.0" cy="430.0" r="3" fill="#D55E00"/>
<text x="346.0" y="430.0" font-family="Arial" font-size="12" dominant-baseline="middle" fill="#111827">local compact w2</text>
<polyline fill="none" stroke="#009E73" stroke-width="2" stroke-dasharray="2 4" points="86.0,284.5 157.2,296.4 228.3,276.4 299.5,272.0 370.7,262.1 441.8,247.1 513.0,233.4 584.2,215.8 655.3,195.8 726.5,179.6 797.7,159.4 868.8,138.4 940.0,117.5"/>
<circle cx="86.0" cy="284.5" r="4" fill="#009E73"><title>local compact w4 n=4: 0.863</title></circle>
<circle cx="157.2" cy="296.4" r="4" fill="#009E73"><title>local compact w4 n=5: 0.584</title></circle>
<circle cx="228.3" cy="276.4" r="4" fill="#009E73"><title>local compact w4 n=6: 1.125</title></circle>
<circle cx="299.5" cy="272.0" r="4" fill="#009E73"><title>local compact w4 n=7: 1.299</title></circle>
<circle cx="370.7" cy="262.1" r="4" fill="#009E73"><title>local compact w4 n=8: 1.802</title></circle>
<circle cx="441.8" cy="247.1" r="4" fill="#009E73"><title>local compact w4 n=9: 2.949</title></circle>
<circle cx="513.0" cy="233.4" r="4" fill="#009E73"><title>local compact w4 n=10: 4.627</title></circle>
<circle cx="584.2" cy="215.8" r="4" fill="#009E73"><title>local compact w4 n=11: 8.274</title></circle>
<circle cx="655.3" cy="195.8" r="4" fill="#009E73"><title>local compact w4 n=12: 15.956</title></circle>
<circle cx="726.5" cy="179.6" r="4" fill="#009E73"><title>local compact w4 n=13: 27.210</title></circle>
<circle cx="797.7" cy="159.4" r="4" fill="#009E73"><title>local compact w4 n=14: 52.771</title></circle>
<circle cx="868.8" cy="138.4" r="4" fill="#009E73"><title>local compact w4 n=15: 105.573</title></circle>
<circle cx="940.0" cy="117.5" r="4" fill="#009E73"><title>local compact w4 n=16: 209.961</title></circle>
<line x1="530.0" y1="430.0" x2="558.0" y2="430.0" stroke="#009E73" stroke-width="2" stroke-dasharray="2 4"/>
<circle cx="544.0" cy="430.0" r="3" fill="#009E73"/>
<text x="566.0" y="430.0" font-family="Arial" font-size="12" dominant-baseline="middle" fill="#111827">local compact w4</text>
<polyline fill="none" stroke="#CC79A7" stroke-width="2" stroke-dasharray="12 4" points="86.0,291.2 157.2,287.4 228.3,279.2 299.5,270.1 370.7,260.6 441.8,243.4 513.0,230.3 584.2,215.5 655.3,196.6 726.5,177.6 797.7,158.5 868.8,138.6 940.0,118.0"/>
<circle cx="86.0" cy="291.2" r="4" fill="#CC79A7"><title>local compact w8 n=4: 0.693</title></circle>
<circle cx="157.2" cy="287.4" r="4" fill="#CC79A7"><title>local compact w8 n=5: 0.783</title></circle>
<circle cx="228.3" cy="279.2" r="4" fill="#CC79A7"><title>local compact w8 n=6: 1.025</title></circle>
<circle cx="299.5" cy="270.1" r="4" fill="#CC79A7"><title>local compact w8 n=7: 1.383</title></circle>
<circle cx="370.7" cy="260.6" r="4" fill="#CC79A7"><title>local compact w8 n=8: 1.891</title></circle>
<circle cx="441.8" cy="243.4" r="4" fill="#CC79A7"><title>local compact w8 n=9: 3.334</title></circle>
<circle cx="513.0" cy="230.3" r="4" fill="#CC79A7"><title>local compact w8 n=10: 5.130</title></circle>
<circle cx="584.2" cy="215.5" r="4" fill="#CC79A7"><title>local compact w8 n=11: 8.348</title></circle>
<circle cx="655.3" cy="196.6" r="4" fill="#CC79A7"><title>local compact w8 n=12: 15.554</title></circle>
<circle cx="726.5" cy="177.6" r="4" fill="#CC79A7"><title>local compact w8 n=13: 28.986</title></circle>
<circle cx="797.7" cy="158.5" r="4" fill="#CC79A7"><title>local compact w8 n=14: 54.456</title></circle>
<circle cx="868.8" cy="138.6" r="4" fill="#CC79A7"><title>local compact w8 n=15: 104.798</title></circle>
<circle cx="940.0" cy="118.0" r="4" fill="#CC79A7"><title>local compact w8 n=16: 206.421</title></circle>
<line x1="750.0" y1="430.0" x2="778.0" y2="430.0" stroke="#CC79A7" stroke-width="2" stroke-dasharray="12 4"/>
<circle cx="764.0" cy="430.0" r="3" fill="#CC79A7"/>
<text x="786.0" y="430.0" font-family="Arial" font-size="12" dominant-baseline="middle" fill="#111827">local compact w8</text>
<polyline fill="none" stroke="#E69F00" stroke-width="2" stroke-dasharray="4 3" points="86.0,271.8 157.2,268.5 228.3,266.3 299.5,263.1 370.7,255.3 441.8,243.3 513.0,227.2 584.2,211.8 655.3,195.9 726.5,172.4 797.7,154.8 868.8,135.8 940.0,116.6"/>
<circle cx="86.0" cy="271.8" r="4" fill="#E69F00"><title>local compact w16 n=4: 1.308</title></circle>
<circle cx="157.2" cy="268.5" r="4" fill="#E69F00"><title>local compact w16 n=5: 1.462</title></circle>
<circle cx="228.3" cy="266.3" r="4" fill="#E69F00"><title>local compact w16 n=6: 1.567</title></circle>
<circle cx="299.5" cy="263.1" r="4" fill="#E69F00"><title>local compact w16 n=7: 1.746</title></circle>
<circle cx="370.7" cy="255.3" r="4" fill="#E69F00"><title>local compact w16 n=8: 2.252</title></circle>
<circle cx="441.8" cy="243.3" r="4" fill="#E69F00"><title>local compact w16 n=9: 3.343</title></circle>
<circle cx="513.0" cy="227.2" r="4" fill="#E69F00"><title>local compact w16 n=10: 5.676</title></circle>
<circle cx="584.2" cy="211.8" r="4" fill="#E69F00"><title>local compact w16 n=11: 9.435</title></circle>
<circle cx="655.3" cy="195.9" r="4" fill="#E69F00"><title>local compact w16 n=12: 15.896</title></circle>
<circle cx="726.5" cy="172.4" r="4" fill="#E69F00"><title>local compact w16 n=13: 34.420</title></circle>
<circle cx="797.7" cy="154.8" r="4" fill="#E69F00"><title>local compact w16 n=14: 61.475</title></circle>
<circle cx="868.8" cy="135.8" r="4" fill="#E69F00"><title>local compact w16 n=15: 114.883</title></circle>
<circle cx="940.0" cy="116.6" r="4" fill="#E69F00"><title>local compact w16 n=16: 216.025</title></circle>
<line x1="90.0" y1="454.0" x2="118.0" y2="454.0" stroke="#E69F00" stroke-width="2" stroke-dasharray="4 3"/>
<circle cx="104.0" cy="454.0" r="3" fill="#E69F00"/>
<text x="126.0" y="454.0" font-family="Arial" font-size="12" dominant-baseline="middle" fill="#111827">local compact w16</text>
</svg>
