<svg xmlns="http://www.w3.org/2000/svg" width="980" height="502" viewBox="0 0 980 502">
<title>PCS network verify time by size</title>
<!-- PCS chart uses stroke-dasharray for series distinction. -->
<rect width="100%" height="100%" fill="#ffffff"/>
<text x="490" y="32" text-anchor="middle" font-family="Arial" font-size="20">PCS network verify time by size</text>
<text x="18" y="210" transform="rotate(-90 18 210)" text-anchor="middle" font-family="Arial" font-size="13">Verify time (ms)</text>
<text x="520" y="402" text-anchor="middle" font-family="Arial" font-size="13">PCS polynomial exponent n in N=2^n</text>
<line x1="86" y1="350" x2="940" y2="350" stroke="#444"/>
<line x1="86" y1="70" x2="86" y2="350" stroke="#444"/>
<line x1="86" y1="350.0" x2="940" y2="350.0" stroke="#e5e7eb"/>
<text x="76" y="351.0" text-anchor="end" dominant-baseline="middle" font-family="Arial" font-size="12">10^0</text>
<line x1="86" y1="210.0" x2="940" y2="210.0" stroke="#e5e7eb"/>
<text x="76" y="211.0" text-anchor="end" dominant-baseline="middle" font-family="Arial" font-size="12">10^1</text>
<line x1="86" y1="70.0" x2="940" y2="70.0" stroke="#e5e7eb"/>
<text x="76" y="71.0" text-anchor="end" dominant-baseline="middle" font-family="Arial" font-size="12">10^2</text>
<text x="86.0" y="374" text-anchor="middle" font-family="Arial" font-size="12">n=4</text>
<text x="157.2" y="374" text-anchor="middle" font-family="Arial" font-size="12">n=5</text>
<text x="228.3" y="374" text-anchor="middle" font-family="Arial" font-size="12">n=6</text>
<text x="299.5" y="374" text-anchor="middle" font-family="Arial" font-size="12">n=7</text>
<text x="370.7" y="374" text-anchor="middle" font-family="Arial" font-size="12">n=8</text>
<text x="441.8" y="374" text-anchor="middle" font-family="Arial" font-size="12">n=9</text>
<text x="513.0" y="374" text-anchor="middle" font-family="Arial" font-size="12">n=10</text>
<text x="584.2" y="374" text-anchor="middle" font-family="Arial" font-size="12">n=11</text>
<text x="655.3" y="374" text-anchor="middle" font-family="Arial" font-size="12">n=12</text>
<text x="726.5" y="374" text-anchor="middle" font-family="Arial" font-size="12">n=13</text>
<text x="797.7" y="374" text-anchor="middle" font-family="Arial" font-size="12">n=14</text>
<text x="868.8" y="374" text-anchor="middle" font-family="Arial" font-size="12">n=15</text>
<text x="940.0" y="374" text-anchor="middle" font-family="Arial" font-size="12">n=16</text>
<polyline fill="none" stroke="#0072B2" stroke-width="2" stroke-dasharray="none" points="86.0,226.1 157.2,213.4 228.3,200.6 299.5,192.3 370.7,184.2 441.8,176.7 513.0,167.4 584.2,161.4 655.3,154.0 726.5,147.2 797.7,140.9 868.8,134.8 940.0,129.1"/>
<circle cx="86.0" cy="226.1" r="4" fill="#0072B2"><title>network compact w1 n=4: 7.675</title></circle>
<circle cx="157.2" cy="213.4" r="4" fill="#0072B2"><title>network compact w1 n=5: 9.454</title></circle>
<circle cx="228.3" cy="200.6" r="4" fill="#0072B2"><title>network compact w1 n=6: 11.677</title></circle>
<circle cx="299.5" cy="192.3" r="4" fill="#0072B2"><title>network compact w1 n=7: 13.380</title></circle>
<circle cx="370.7" cy="184.2" r="4" fill="#0072B2"><title>network compact w1 n=8: 15.291</title></circle>
<circle cx="441.8" cy="176.7" r="4" fill="#0072B2"><title>network compact w1 n=9: 17.296</title></circle>
<circle cx="513.0" cy="167.4" r="4" fill="#0072B2"><title>network compact w1 n=10: 20.145</title></circle>
<circle cx="584.2" cy="161.4" r="4" fill="#0072B2"><title>network compact w1 n=11: 22.242</title></circle>
<circle cx="655.3" cy="154.0" r="4" fill="#0072B2"><title>network compact w1 n=12: 25.132</title></circle>
<circle cx="726.5" cy="147.2" r="4" fill="#0072B2"><title>network compact w1 n=13: 28.068</title></circle>
<circle cx="797.7" cy="140.9" r="4" fill="#0072B2"><title>network compact w1 n=14: 31.164</title></circle>
<circle cx="868.8" cy="134.8" r="4" fill="#0072B2"><title>network compact w1 n=15: 34.442</title></circle>
<circle cx="940.0" cy="129.1" r="4" fill="#0072B2"><title>network compact w1 n=16: 37.803</title></circle>
<line x1="90.0" y1="430.0" x2="118.0" y2="430.0" stroke="#0072B2" stroke-width="2" stroke-dasharray="none"/>
<circle cx="104.0" cy="430.0" r="3" fill="#0072B2"/>
<text x="126.0" y="430.0" font-family="Arial" font-size="12" dominant-baseline="middle" fill="#111827">network compact w1</text>
<polyline fill="none" stroke="#D55E00" stroke-width="2" stroke-dasharray="6 4" points="86.0,231.2 157.2,218.1 228.3,207.4 299.5,195.3 370.7,187.6 441.8,179.1 513.0,171.2 584.2,162.8 655.3,155.4 726.5,149.0 797.7,122.6 868.8,137.4 940.0,117.9"/>
<circle cx="86.0" cy="231.2" r="4" fill="#D55E00"><title>network compact w2 n=4: 7.052</title></circle>
<circle cx="157.2" cy="218.1" r="4" fill="#D55E00"><title>network compact w2 n=5: 8.753</title></circle>
<circle cx="228.3" cy="207.4" r="4" fill="#D55E00"><title>network compact w2 n=6: 10.429</title></circle>
<circle cx="299.5" cy="195.3" r="4" fill="#D55E00"><title>network compact w2 n=7: 12.730</title></circle>
<circle cx="370.7" cy="187.6" r="4" fill="#D55E00"><title>network compact w2 n=8: 14.460</title></circle>
<circle cx="441.8" cy="179.1" r="4" fill="#D55E00"><title>network compact w2 n=9: 16.611</title></circle>
<circle cx="513.0" cy="171.2" r="4" fill="#D55E00"><title>network compact w2 n=10: 18.917</title></circle>
<circle cx="584.2" cy="162.8" r="4" fill="#D55E00"><title>network compact w2 n=11: 21.733</title></circle>
<circle cx="655.3" cy="155.4" r="4" fill="#D55E00"><title>network compact w2 n=12: 24.536</title></circle>
<circle cx="726.5" cy="149.0" r="4" fill="#D55E00"><title>network compact w2 n=13: 27.277</title></circle>
<circle cx="797.7" cy="122.6" r="4" fill="#D55E00"><title>network compact w2 n=14: 42.101</title></circle>
<circle cx="868.8" cy="137.4" r="4" fill="#D55E00"><title>network compact w2 n=15: 33.029</title></circle>
<circle cx="940.0" cy="117.9" r="4" fill="#D55E00"><title>network compact w2 n=16: 45.483</title></circle>
<line x1="310.0" y1="430.0" x2="338.0" y2="430.0" stroke="#D55E00" stroke-width="2" stroke-dasharray="6 4"/>
<circle cx="324.0" cy="430.0" r="3" fill="#D55E00"/>
<text x="346.0" y="430.0" font-family="Arial" font-size="12" dominant-baseline="middle" fill="#111827">network compact w2</text>
<polyline fill="none" stroke="#009E73" stroke-width="2" stroke-dasharray="2 4" points="86.0,229.5 157.2,217.4 228.3,205.7 299.5,192.5 370.7,185.5 441.8,176.8 513.0,168.6 584.2,160.4 655.3,153.7 726.5,147.1 797.7,127.3 868.8,135.2 940.0,117.5"/>
<circle cx="86.0" cy="229.5" r="4" fill="#009E73"><title>network compact w4 n=4: 7.261</title></circle>
<circle cx="157.2" cy="217.4" r="4" fill="#009E73"><title>network compact w4 n=5: 8.854</title></circle>
<circle cx="228.3" cy="205.7" r="4" fill="#009E73"><title>network compact w4 n=6: 10.735</title></circle>
<circle cx="299.5" cy="192.5" r="4" fill="#009E73"><title>network compact w4 n=7: 13.338</title></circle>
<circle cx="370.7" cy="185.5" r="4" fill="#009E73"><title>network compact w4 n=8: 14.953</title></circle>
<circle cx="441.8" cy="176.8" r="4" fill="#009E73"><title>network compact w4 n=9: 17.251</title></circle>
<circle cx="513.0" cy="168.6" r="4" fill="#009E73"><title>network compact w4 n=10: 19.756</title></circle>
<circle cx="584.2" cy="160.4" r="4" fill="#009E73"><title>network compact w4 n=11: 22.617</title></circle>
<circle cx="655.3" cy="153.7" r="4" fill="#009E73"><title>network compact w4 n=12: 25.234</title></circle>
<circle cx="726.5" cy="147.1" r="4" fill="#009E73"><title>network compact w4 n=13: 28.133</title></circle>
<circle cx="797.7" cy="127.3" r="4" fill="#009E73"><title>network compact w4 n=14: 38.964</title></circle>
<circle cx="868.8" cy="135.2" r="4" fill="#009E73"><title>network compact w4 n=15: 34.234</title></circle>
<circle cx="940.0" cy="117.5" r="4" fill="#009E73"><title>network compact w4 n=16: 45.782</title></circle>
<line x1="530.0" y1="430.0" x2="558.0" y2="430.0" stroke="#009E73" stroke-width="2" stroke-dasharray="2 4"/>
<circle cx="544.0" cy="430.0" r="3" fill="#009E73"/>
<text x="566.0" y="430.0" font-family="Arial" font-size="12" dominant-baseline="middle" fill="#111827">network compact w4</text>
<polyline fill="none" stroke="#CC79A7" stroke-width="2" stroke-dasharray="12 4" points="86.0,225.0 157.2,210.0 228.3,197.2 299.5,185.6 370.7,171.5 441.8,167.3 513.0,155.9 584.2,152.7 655.3,143.6 726.5,137.7 797.7,126.8 868.8,124.6 940.0,119.6"/>
<circle cx="86.0" cy="225.0" r="4" fill="#CC79A7"><title>network compact w8 n=4: 7.813</title></circle>
<circle cx="157.2" cy="210.0" r="4" fill="#CC79A7"><title>network compact w8 n=5: 10.005</title></circle>
<circle cx="228.3" cy="197.2" r="4" fill="#CC79A7"><title>network compact w8 n=6: 12.351</title></circle>
<circle cx="299.5" cy="185.6" r="4" fill="#CC79A7"><title>network compact w8 n=7: 14.942</title></circle>
<circle cx="370.7" cy="171.5" r="4" fill="#CC79A7"><title>network compact w8 n=8: 18.840</title></circle>
<circle cx="441.8" cy="167.3" r="4" fill="#CC79A7"><title>network compact w8 n=9: 20.200</title></circle>
<circle cx="513.0" cy="155.9" r="4" fill="#CC79A7"><title>network compact w8 n=10: 24.363</title></circle>
<circle cx="584.2" cy="152.7" r="4" fill="#CC79A7"><title>network compact w8 n=11: 25.652</title></circle>
<circle cx="655.3" cy="143.6" r="4" fill="#CC79A7"><title>network compact w8 n=12: 29.793</title></circle>
<circle cx="726.5" cy="137.7" r="4" fill="#CC79A7"><title>network compact w8 n=13: 32.869</title></circle>
<circle cx="797.7" cy="126.8" r="4" fill="#CC79A7"><title>network compact w8 n=14: 39.280</title></circle>
<circle cx="868.8" cy="124.6" r="4" fill="#CC79A7"><title>network compact w8 n=15: 40.755</title></circle>
<circle cx="940.0" cy="119.6" r="4" fill="#CC79A7"><title>network compact w8 n=16: 44.259</title></circle>
<line x1="750.0" y1="430.0" x2="778.0" y2="430.0" stroke="#CC79A7" stroke-width="2" stroke-dasharray="12 4"/>
<circle cx="764.0" cy="430.0" r="3" fill="#CC79A7"/>
<text x="786.0" y="430.0" font-family="Arial" font-size="12" dominant-baseline="middle" fill="#111827">network compact w8</text>
<polyline fill="none" stroke="#E69F00" stroke-width="2" stroke-dasharray="4 3" points="86.0,206.2 157.2,193.6 228.3,181.3 299.5,170.1 370.7,159.6 441.8,150.8 513.0,142.9 584.2,134.5 655.3,127.1 726.5,120.3 797.7,114.4 868.8,101.9 940.0,102.6"/>
<circle cx="86.0" cy="206.2" r="4" fill="#E69F00"><title>network compact w16 n=4: 10.644</title></circle>
<circle cx="157.2" cy="193.6" r="4" fill="#E69F00"><title>network compact w16 n=5: 13.100</title></circle>
<circle cx="228.3" cy="181.3" r="4" fill="#E69F00"><title>network compact w16 n=6: 16.042</title></circle>
<circle cx="299.5" cy="170.1" r="4" fill="#E69F00"><title>network compact w16 n=7: 19.287</title></circle>
<circle cx="370.7" cy="159.6" r="4" fill="#E69F00"><title>network compact w16 n=8: 22.914</title></circle>
<circle cx="441.8" cy="150.8" r="4" fill="#E69F00"><title>network compact w16 n=9: 26.461</title></circle>
<circle cx="513.0" cy="142.9" r="4" fill="#E69F00"><title>network compact w16 n=10: 30.152</title></circle>
<circle cx="584.2" cy="134.5" r="4" fill="#E69F00"><title>network compact w16 n=11: 34.626</title></circle>
<circle cx="655.3" cy="127.1" r="4" fill="#E69F00"><title>network compact w16 n=12: 39.075</title></circle>
<circle cx="726.5" cy="120.3" r="4" fill="#E69F00"><title>network compact w16 n=13: 43.696</title></circle>
<circle cx="797.7" cy="114.4" r="4" fill="#E69F00"><title>network compact w16 n=14: 48.164</title></circle>
<circle cx="868.8" cy="101.9" r="4" fill="#E69F00"><title>network compact w16 n=15: 59.197</title></circle>
<circle cx="940.0" cy="102.6" r="4" fill="#E69F00"><title>network compact w16 n=16: 58.467</title></circle>
<line x1="90.0" y1="454.0" x2="118.0" y2="454.0" stroke="#E69F00" stroke-width="2" stroke-dasharray="4 3"/>
<circle cx="104.0" cy="454.0" r="3" fill="#E69F00"/>
<text x="126.0" y="454.0" font-family="Arial" font-size="12" dominant-baseline="middle" fill="#111827">network compact w16</text>
</svg>
