<svg xmlns="http://www.w3.org/2000/svg" width="980" height="502" viewBox="0 0 980 502">
<title>PCS network commit time by size</title>
<!-- PCS chart uses stroke-dasharray for series distinction. -->
<rect width="100%" height="100%" fill="#ffffff"/>
<text x="490" y="32" text-anchor="middle" font-family="Arial" font-size="20">PCS network commit time by size</text>
<text x="18" y="210" transform="rotate(-90 18 210)" text-anchor="middle" font-family="Arial" font-size="13">Commit time (ms)</text>
<text x="520" y="402" text-anchor="middle" font-family="Arial" font-size="13">PCS polynomial exponent n in N=2^n</text>
<line x1="86" y1="350" x2="940" y2="350" stroke="#444"/>
<line x1="86" y1="70" x2="86" y2="350" stroke="#444"/>
<line x1="86" y1="350.0" x2="940" y2="350.0" stroke="#e5e7eb"/>
<text x="76" y="351.0" text-anchor="end" dominant-baseline="middle" font-family="Arial" font-size="12">10^-1</text>
<line x1="86" y1="294.0" x2="940" y2="294.0" stroke="#e5e7eb"/>
<text x="76" y="295.0" text-anchor="end" dominant-baseline="middle" font-family="Arial" font-size="12">10^0</text>
<line x1="86" y1="238.0" x2="940" y2="238.0" stroke="#e5e7eb"/>
<text x="76" y="239.0" text-anchor="end" dominant-baseline="middle" font-family="Arial" font-size="12">10^1</text>
<line x1="86" y1="182.0" x2="940" y2="182.0" stroke="#e5e7eb"/>
<text x="76" y="183.0" text-anchor="end" dominant-baseline="middle" font-family="Arial" font-size="12">10^2</text>
<line x1="86" y1="126.0" x2="940" y2="126.0" stroke="#e5e7eb"/>
<text x="76" y="127.0" text-anchor="end" dominant-baseline="middle" font-family="Arial" font-size="12">10^3</text>
<line x1="86" y1="70.0" x2="940" y2="70.0" stroke="#e5e7eb"/>
<text x="76" y="71.0" text-anchor="end" dominant-baseline="middle" font-family="Arial" font-size="12">10^4</text>
<text x="86.0" y="374" text-anchor="middle" font-family="Arial" font-size="12">n=4</text>
<text x="157.2" y="374" text-anchor="middle" font-family="Arial" font-size="12">n=5</text>
<text x="228.3" y="374" text-anchor="middle" font-family="Arial" font-size="12">n=6</text>
<text x="299.5" y="374" text-anchor="middle" font-family="Arial" font-size="12">n=7</text>
<text x="370.7" y="374" text-anchor="middle" font-family="Arial" font-size="12">n=8</text>
<text x="441.8" y="374" text-anchor="middle" font-family="Arial" font-size="12">n=9</text>
<text x="513.0" y="374" text-anchor="middle" font-family="Arial" font-size="12">n=10</text>
<text x="584.2" y="374" text-anchor="middle" font-family="Arial" font-size="12">n=11</text>
<text x="655.3" y="374" text-anchor="middle" font-family="Arial" font-size="12">n=12</text>
<text x="726.5" y="374" text-anchor="middle" font-family="Arial" font-size="12">n=13</text>
<text x="797.7" y="374" text-anchor="middle" font-family="Arial" font-size="12">n=14</text>
<text x="868.8" y="374" text-anchor="middle" font-family="Arial" font-size="12">n=15</text>
<text x="940.0" y="374" text-anchor="middle" font-family="Arial" font-size="12">n=16</text>
<polyline fill="none" stroke="#0072B2" stroke-width="2" stroke-dasharray="none" points="86.0,297.2 157.2,279.4 228.3,271.0 299.5,257.9 370.7,244.5 441.8,227.8 513.0,213.1 584.2,196.5 655.3,179.9 726.5,162.6 797.7,145.1 868.8,128.5 940.0,111.4"/>
<circle cx="86.0" cy="297.2" r="4" fill="#0072B2"><title>network compact w1 n=4: 0.878</title></circle>
<circle cx="157.2" cy="279.4" r="4" fill="#0072B2"><title>network compact w1 n=5: 1.823</title></circle>
<circle cx="228.3" cy="271.0" r="4" fill="#0072B2"><title>network compact w1 n=6: 2.577</title></circle>
<circle cx="299.5" cy="257.9" r="4" fill="#0072B2"><title>network compact w1 n=7: 4.420</title></circle>
<circle cx="370.7" cy="244.5" r="4" fill="#0072B2"><title>network compact w1 n=8: 7.640</title></circle>
<circle cx="441.8" cy="227.8" r="4" fill="#0072B2"><title>network compact w1 n=9: 15.237</title></circle>
<circle cx="513.0" cy="213.1" r="4" fill="#0072B2"><title>network compact w1 n=10: 27.811</title></circle>
<circle cx="584.2" cy="196.5" r="4" fill="#0072B2"><title>network compact w1 n=11: 55.147</title></circle>
<circle cx="655.3" cy="179.9" r="4" fill="#0072B2"><title>network compact w1 n=12: 108.970</title></circle>
<circle cx="726.5" cy="162.6" r="4" fill="#0072B2"><title>network compact w1 n=13: 222.362</title></circle>
<circle cx="797.7" cy="145.1" r="4" fill="#0072B2"><title>network compact w1 n=14: 455.578</title></circle>
<circle cx="868.8" cy="128.5" r="4" fill="#0072B2"><title>network compact w1 n=15: 901.634</title></circle>
<circle cx="940.0" cy="111.4" r="4" fill="#0072B2"><title>network compact w1 n=16: 1822.669</title></circle>
<line x1="90.0" y1="430.0" x2="118.0" y2="430.0" stroke="#0072B2" stroke-width="2" stroke-dasharray="none"/>
<circle cx="104.0" cy="430.0" r="3" fill="#0072B2"/>
<text x="126.0" y="430.0" font-family="Arial" font-size="12" dominant-baseline="middle" fill="#111827">network compact w1</text>
<polyline fill="none" stroke="#D55E00" stroke-width="2" stroke-dasharray="6 4" points="86.0,294.9 157.2,281.1 228.3,271.9 299.5,259.3 370.7,244.1 441.8,228.2 513.0,212.7 584.2,194.2 655.3,179.7 726.5,163.1 797.7,145.9 868.8,128.2 940.0,111.8"/>
<circle cx="86.0" cy="294.9" r="4" fill="#D55E00"><title>network compact w2 n=4: 0.963</title></circle>
<circle cx="157.2" cy="281.1" r="4" fill="#D55E00"><title>network compact w2 n=5: 1.697</title></circle>
<circle cx="228.3" cy="271.9" r="4" fill="#D55E00"><title>network compact w2 n=6: 2.486</title></circle>
<circle cx="299.5" cy="259.3" r="4" fill="#D55E00"><title>network compact w2 n=7: 4.161</title></circle>
<circle cx="370.7" cy="244.1" r="4" fill="#D55E00"><title>network compact w2 n=8: 7.793</title></circle>
<circle cx="441.8" cy="228.2" r="4" fill="#D55E00"><title>network compact w2 n=9: 14.966</title></circle>
<circle cx="513.0" cy="212.7" r="4" fill="#D55E00"><title>network compact w2 n=10: 28.305</title></circle>
<circle cx="584.2" cy="194.2" r="4" fill="#D55E00"><title>network compact w2 n=11: 60.497</title></circle>
<circle cx="655.3" cy="179.7" r="4" fill="#D55E00"><title>network compact w2 n=12: 109.798</title></circle>
<circle cx="726.5" cy="163.1" r="4" fill="#D55E00"><title>network compact w2 n=13: 217.388</title></circle>
<circle cx="797.7" cy="145.9" r="4" fill="#D55E00"><title>network compact w2 n=14: 442.009</title></circle>
<circle cx="868.8" cy="128.2" r="4" fill="#D55E00"><title>network compact w2 n=15: 911.792</title></circle>
<circle cx="940.0" cy="111.8" r="4" fill="#D55E00"><title>network compact w2 n=16: 1789.405</title></circle>
<line x1="310.0" y1="430.0" x2="338.0" y2="430.0" stroke="#D55E00" stroke-width="2" stroke-dasharray="6 4"/>
<circle cx="324.0" cy="430.0" r="3" fill="#D55E00"/>
<text x="346.0" y="430.0" font-family="Arial" font-size="12" dominant-baseline="middle" fill="#111827">network compact w2</text>
<polyline fill="none" stroke="#009E73" stroke-width="2" stroke-dasharray="2 4" points="86.0,299.6 157.2,292.3 228.3,277.5 299.5,271.0 370.7,257.1 441.8,244.4 513.0,229.3 584.2,212.9 655.3,195.9 726.5,179.4 797.7,159.3 868.8,145.7 940.0,127.4"/>
<circle cx="86.0" cy="299.6" r="4" fill="#009E73"><title>network compact w4 n=4: 0.793</title></circle>
<circle cx="157.2" cy="292.3" r="4" fill="#009E73"><title>network compact w4 n=5: 1.071</title></circle>
<circle cx="228.3" cy="277.5" r="4" fill="#009E73"><title>network compact w4 n=6: 1.973</title></circle>
<circle cx="299.5" cy="271.0" r="4" fill="#009E73"><title>network compact w4 n=7: 2.576</title></circle>
<circle cx="370.7" cy="257.1" r="4" fill="#009E73"><title>network compact w4 n=8: 4.568</title></circle>
<circle cx="441.8" cy="244.4" r="4" fill="#009E73"><title>network compact w4 n=9: 7.689</title></circle>
<circle cx="513.0" cy="229.3" r="4" fill="#009E73"><title>network compact w4 n=10: 14.311</title></circle>
<circle cx="584.2" cy="212.9" r="4" fill="#009E73"><title>network compact w4 n=11: 28.066</title></circle>
<circle cx="655.3" cy="195.9" r="4" fill="#009E73"><title>network compact w4 n=12: 56.462</title></circle>
<circle cx="726.5" cy="179.4" r="4" fill="#009E73"><title>network compact w4 n=13: 111.276</title></circle>
<circle cx="797.7" cy="159.3" r="4" fill="#009E73"><title>network compact w4 n=14: 254.703</title></circle>
<circle cx="868.8" cy="145.7" r="4" fill="#009E73"><title>network compact w4 n=15: 444.221</title></circle>
<circle cx="940.0" cy="127.4" r="4" fill="#009E73"><title>network compact w4 n=16: 945.313</title></circle>
<line x1="530.0" y1="430.0" x2="558.0" y2="430.0" stroke="#009E73" stroke-width="2" stroke-dasharray="2 4"/>
<circle cx="544.0" cy="430.0" r="3" fill="#009E73"/>
<text x="566.0" y="430.0" font-family="Arial" font-size="12" dominant-baseline="middle" fill="#111827">network compact w4</text>
<polyline fill="none" stroke="#CC79A7" stroke-width="2" stroke-dasharray="12 4" points="86.0,295.8 157.2,281.2 228.3,284.1 299.5,278.1 370.7,270.7 441.8,258.0 513.0,243.9 584.2,228.0 655.3,212.2 726.5,194.0 797.7,167.2 868.8,161.9 940.0,143.1"/>
<circle cx="86.0" cy="295.8" r="4" fill="#CC79A7"><title>network compact w8 n=4: 0.928</title></circle>
<circle cx="157.2" cy="281.2" r="4" fill="#CC79A7"><title>network compact w8 n=5: 1.696</title></circle>
<circle cx="228.3" cy="284.1" r="4" fill="#CC79A7"><title>network compact w8 n=6: 1.500</title></circle>
<circle cx="299.5" cy="278.1" r="4" fill="#CC79A7"><title>network compact w8 n=7: 1.919</title></circle>
<circle cx="370.7" cy="270.7" r="4" fill="#CC79A7"><title>network compact w8 n=8: 2.608</title></circle>
<circle cx="441.8" cy="258.0" r="4" fill="#CC79A7"><title>network compact w8 n=9: 4.391</title></circle>
<circle cx="513.0" cy="243.9" r="4" fill="#CC79A7"><title>network compact w8 n=10: 7.853</title></circle>
<circle cx="584.2" cy="228.0" r="4" fill="#CC79A7"><title>network compact w8 n=11: 15.086</title></circle>
<circle cx="655.3" cy="212.2" r="4" fill="#CC79A7"><title>network compact w8 n=12: 28.853</title></circle>
<circle cx="726.5" cy="194.0" r="4" fill="#CC79A7"><title>network compact w8 n=13: 61.092</title></circle>
<circle cx="797.7" cy="167.2" r="4" fill="#CC79A7"><title>network compact w8 n=14: 184.036</title></circle>
<circle cx="868.8" cy="161.9" r="4" fill="#CC79A7"><title>network compact w8 n=15: 228.451</title></circle>
<circle cx="940.0" cy="143.1" r="4" fill="#CC79A7"><title>network compact w8 n=16: 494.585</title></circle>
<line x1="750.0" y1="430.0" x2="778.0" y2="430.0" stroke="#CC79A7" stroke-width="2" stroke-dasharray="12 4"/>
<circle cx="764.0" cy="430.0" r="3" fill="#CC79A7"/>
<text x="786.0" y="430.0" font-family="Arial" font-size="12" dominant-baseline="middle" fill="#111827">network compact w8</text>
<polyline fill="none" stroke="#E69F00" stroke-width="2" stroke-dasharray="4 3" points="86.0,282.3 157.2,280.9 228.3,278.4 299.5,277.8 370.7,267.9 441.8,259.8 513.0,245.1 584.2,240.2 655.3,227.0 726.5,210.3 797.7,186.1 868.8,177.6 940.0,159.4"/>
<circle cx="86.0" cy="282.3" r="4" fill="#E69F00"><title>network compact w16 n=4: 1.618</title></circle>
<circle cx="157.2" cy="280.9" r="4" fill="#E69F00"><title>network compact w16 n=5: 1.713</title></circle>
<circle cx="228.3" cy="278.4" r="4" fill="#E69F00"><title>network compact w16 n=6: 1.898</title></circle>
<circle cx="299.5" cy="277.8" r="4" fill="#E69F00"><title>network compact w16 n=7: 1.948</title></circle>
<circle cx="370.7" cy="267.9" r="4" fill="#E69F00"><title>network compact w16 n=8: 2.924</title></circle>
<circle cx="441.8" cy="259.8" r="4" fill="#E69F00"><title>network compact w16 n=9: 4.081</title></circle>
<circle cx="513.0" cy="245.1" r="4" fill="#E69F00"><title>network compact w16 n=10: 7.483</title></circle>
<circle cx="584.2" cy="240.2" r="4" fill="#E69F00"><title>network compact w16 n=11: 9.117</title></circle>
<circle cx="655.3" cy="227.0" r="4" fill="#E69F00"><title>network compact w16 n=12: 15.701</title></circle>
<circle cx="726.5" cy="210.3" r="4" fill="#E69F00"><title>network compact w16 n=13: 31.172</title></circle>
<circle cx="797.7" cy="186.1" r="4" fill="#E69F00"><title>network compact w16 n=14: 84.546</title></circle>
<circle cx="868.8" cy="177.6" r="4" fill="#E69F00"><title>network compact w16 n=15: 119.703</title></circle>
<circle cx="940.0" cy="159.4" r="4" fill="#E69F00"><title>network compact w16 n=16: 252.953</title></circle>
<line x1="90.0" y1="454.0" x2="118.0" y2="454.0" stroke="#E69F00" stroke-width="2" stroke-dasharray="4 3"/>
<circle cx="104.0" cy="454.0" r="3" fill="#E69F00"/>
<text x="126.0" y="454.0" font-family="Arial" font-size="12" dominant-baseline="middle" fill="#111827">network compact w16</text>
</svg>
