<svg xmlns="http://www.w3.org/2000/svg" width="980" height="526" viewBox="0 0 980 526">
<title>PCS opening bytes by size</title>
<!-- PCS chart uses stroke-dasharray for series distinction. -->
<rect width="100%" height="100%" fill="#ffffff"/>
<text x="490" y="32" text-anchor="middle" font-family="Arial" font-size="20">PCS opening bytes by size</text>
<text x="18" y="210" transform="rotate(-90 18 210)" text-anchor="middle" font-family="Arial" font-size="13">Opening bytes (KiB)</text>
<text x="520" y="402" text-anchor="middle" font-family="Arial" font-size="13">PCS polynomial exponent n in N=2^n</text>
<line x1="86" y1="350" x2="940" y2="350" stroke="#444"/>
<line x1="86" y1="70" x2="86" y2="350" stroke="#444"/>
<line x1="86" y1="350.0" x2="940" y2="350.0" stroke="#e5e7eb"/>
<text x="76" y="351.0" text-anchor="end" dominant-baseline="middle" font-family="Arial" font-size="12">10^0</text>
<line x1="86" y1="210.0" x2="940" y2="210.0" stroke="#e5e7eb"/>
<text x="76" y="211.0" text-anchor="end" dominant-baseline="middle" font-family="Arial" font-size="12">10^1</text>
<line x1="86" y1="70.0" x2="940" y2="70.0" stroke="#e5e7eb"/>
<text x="76" y="71.0" text-anchor="end" dominant-baseline="middle" font-family="Arial" font-size="12">10^2</text>
<text x="86.0" y="374" text-anchor="middle" font-family="Arial" font-size="12">n=4</text>
<text x="157.2" y="374" text-anchor="middle" font-family="Arial" font-size="12">n=5</text>
<text x="228.3" y="374" text-anchor="middle" font-family="Arial" font-size="12">n=6</text>
<text x="299.5" y="374" text-anchor="middle" font-family="Arial" font-size="12">n=7</text>
<text x="370.7" y="374" text-anchor="middle" font-family="Arial" font-size="12">n=8</text>
<text x="441.8" y="374" text-anchor="middle" font-family="Arial" font-size="12">n=9</text>
<text x="513.0" y="374" text-anchor="middle" font-family="Arial" font-size="12">n=10</text>
<text x="584.2" y="374" text-anchor="middle" font-family="Arial" font-size="12">n=11</text>
<text x="655.3" y="374" text-anchor="middle" font-family="Arial" font-size="12">n=12</text>
<text x="726.5" y="374" text-anchor="middle" font-family="Arial" font-size="12">n=13</text>
<text x="797.7" y="374" text-anchor="middle" font-family="Arial" font-size="12">n=14</text>
<text x="868.8" y="374" text-anchor="middle" font-family="Arial" font-size="12">n=15</text>
<text x="940.0" y="374" text-anchor="middle" font-family="Arial" font-size="12">n=16</text>
<polyline fill="none" stroke="#0072B2" stroke-width="2" stroke-dasharray="none" points="86.0,213.6 157.2,201.0 228.3,189.8 299.5,179.6 370.7,170.3 441.8,161.6 513.0,153.6 584.2,146.1 655.3,139.1 726.5,132.4 797.7,126.2 868.8,120.2 940.0,114.5"/>
<circle cx="86.0" cy="213.6" r="4" fill="#0072B2"><title>local compact w1 n=4: 9.429</title></circle>
<circle cx="157.2" cy="201.0" r="4" fill="#0072B2"><title>local compact w1 n=5: 11.587</title></circle>
<circle cx="228.3" cy="189.8" r="4" fill="#0072B2"><title>local compact w1 n=6: 13.938</title></circle>
<circle cx="299.5" cy="179.6" r="4" fill="#0072B2"><title>local compact w1 n=7: 16.483</title></circle>
<circle cx="370.7" cy="170.3" r="4" fill="#0072B2"><title>local compact w1 n=8: 19.222</title></circle>
<circle cx="441.8" cy="161.6" r="4" fill="#0072B2"><title>local compact w1 n=9: 22.153</title></circle>
<circle cx="513.0" cy="153.6" r="4" fill="#0072B2"><title>local compact w1 n=10: 25.278</title></circle>
<circle cx="584.2" cy="146.1" r="4" fill="#0072B2"><title>local compact w1 n=11: 28.597</title></circle>
<circle cx="655.3" cy="139.1" r="4" fill="#0072B2"><title>local compact w1 n=12: 32.108</title></circle>
<circle cx="726.5" cy="132.4" r="4" fill="#0072B2"><title>local compact w1 n=13: 35.813</title></circle>
<circle cx="797.7" cy="126.2" r="4" fill="#0072B2"><title>local compact w1 n=14: 39.712</title></circle>
<circle cx="868.8" cy="120.2" r="4" fill="#0072B2"><title>local compact w1 n=15: 43.804</title></circle>
<circle cx="940.0" cy="114.5" r="4" fill="#0072B2"><title>local compact w1 n=16: 48.089</title></circle>
<line x1="90.0" y1="430.0" x2="118.0" y2="430.0" stroke="#0072B2" stroke-width="2" stroke-dasharray="none"/>
<circle cx="104.0" cy="430.0" r="3" fill="#0072B2"/>
<text x="126.0" y="430.0" font-family="Arial" font-size="12" dominant-baseline="middle" fill="#111827">local compact w1</text>
<polyline fill="none" stroke="#D55E00" stroke-width="2" stroke-dasharray="6 4" points="86.0,219.0 157.2,205.5 228.3,193.5 299.5,182.7 370.7,172.9 441.8,163.9 513.0,155.6 584.2,147.9 655.3,140.6 726.5,133.8 797.7,127.4 868.8,121.3 940.0,115.5"/>
<circle cx="86.0" cy="219.0" r="4" fill="#D55E00"><title>local compact w2 n=4: 8.618</title></circle>
<circle cx="157.2" cy="205.5" r="4" fill="#D55E00"><title>local compact w2 n=5: 10.776</title></circle>
<circle cx="228.3" cy="193.5" r="4" fill="#D55E00"><title>local compact w2 n=6: 13.128</title></circle>
<circle cx="299.5" cy="182.7" r="4" fill="#D55E00"><title>local compact w2 n=7: 15.673</title></circle>
<circle cx="370.7" cy="172.9" r="4" fill="#D55E00"><title>local compact w2 n=8: 18.411</title></circle>
<circle cx="441.8" cy="163.9" r="4" fill="#D55E00"><title>local compact w2 n=9: 21.343</title></circle>
<circle cx="513.0" cy="155.6" r="4" fill="#D55E00"><title>local compact w2 n=10: 24.468</title></circle>
<circle cx="584.2" cy="147.9" r="4" fill="#D55E00"><title>local compact w2 n=11: 27.786</title></circle>
<circle cx="655.3" cy="140.6" r="4" fill="#D55E00"><title>local compact w2 n=12: 31.298</title></circle>
<circle cx="726.5" cy="133.8" r="4" fill="#D55E00"><title>local compact w2 n=13: 35.003</title></circle>
<circle cx="797.7" cy="127.4" r="4" fill="#D55E00"><title>local compact w2 n=14: 38.901</title></circle>
<circle cx="868.8" cy="121.3" r="4" fill="#D55E00"><title>local compact w2 n=15: 42.993</title></circle>
<circle cx="940.0" cy="115.5" r="4" fill="#D55E00"><title>local compact w2 n=16: 47.278</title></circle>
<line x1="310.0" y1="430.0" x2="338.0" y2="430.0" stroke="#D55E00" stroke-width="2" stroke-dasharray="6 4"/>
<circle cx="324.0" cy="430.0" r="3" fill="#D55E00"/>
<text x="346.0" y="430.0" font-family="Arial" font-size="12" dominant-baseline="middle" fill="#111827">local compact w2</text>
<polyline fill="none" stroke="#009E73" stroke-width="2" stroke-dasharray="2 4" points="86.0,219.4 157.2,204.7 228.3,191.9 299.5,180.7 370.7,170.5 441.8,161.3 513.0,152.9 584.2,145.1 655.3,137.8 726.5,131.0 797.7,124.5 868.8,118.5 940.0,112.7"/>
<circle cx="86.0" cy="219.4" r="4" fill="#009E73"><title>local compact w4 n=4: 8.567</title></circle>
<circle cx="157.2" cy="204.7" r="4" fill="#009E73"><title>local compact w4 n=5: 10.919</title></circle>
<circle cx="228.3" cy="191.9" r="4" fill="#009E73"><title>local compact w4 n=6: 13.464</title></circle>
<circle cx="299.5" cy="180.7" r="4" fill="#009E73"><title>local compact w4 n=7: 16.202</title></circle>
<circle cx="370.7" cy="170.5" r="4" fill="#009E73"><title>local compact w4 n=8: 19.134</title></circle>
<circle cx="441.8" cy="161.3" r="4" fill="#009E73"><title>local compact w4 n=9: 22.259</title></circle>
<circle cx="513.0" cy="152.9" r="4" fill="#009E73"><title>local compact w4 n=10: 25.577</title></circle>
<circle cx="584.2" cy="145.1" r="4" fill="#009E73"><title>local compact w4 n=11: 29.089</title></circle>
<circle cx="655.3" cy="137.8" r="4" fill="#009E73"><title>local compact w4 n=12: 32.794</title></circle>
<circle cx="726.5" cy="131.0" r="4" fill="#009E73"><title>local compact w4 n=13: 36.692</title></circle>
<circle cx="797.7" cy="124.5" r="4" fill="#009E73"><title>local compact w4 n=14: 40.784</title></circle>
<circle cx="868.8" cy="118.5" r="4" fill="#009E73"><title>local compact w4 n=15: 45.069</title></circle>
<circle cx="940.0" cy="112.7" r="4" fill="#009E73"><title>local compact w4 n=16: 49.548</title></circle>
<line x1="530.0" y1="430.0" x2="558.0" y2="430.0" stroke="#009E73" stroke-width="2" stroke-dasharray="2 4"/>
<circle cx="544.0" cy="430.0" r="3" fill="#009E73"/>
<text x="566.0" y="430.0" font-family="Arial" font-size="12" dominant-baseline="middle" fill="#111827">local compact w4</text>
<polyline fill="none" stroke="#CC79A7" stroke-width="2" stroke-dasharray="12 4" points="86.0,213.4 157.2,197.0 228.3,183.3 299.5,171.5 370.7,161.1 441.8,151.8 513.0,143.3 584.2,135.5 655.3,128.3 726.5,121.6 797.7,115.3 868.8,109.4 940.0,103.8"/>
<circle cx="86.0" cy="213.4" r="4" fill="#CC79A7"><title>local compact w8 n=4: 9.456</title></circle>
<circle cx="157.2" cy="197.0" r="4" fill="#CC79A7"><title>local compact w8 n=5: 12.388</title></circle>
<circle cx="228.3" cy="183.3" r="4" fill="#CC79A7"><title>local compact w8 n=6: 15.513</title></circle>
<circle cx="299.5" cy="171.5" r="4" fill="#CC79A7"><title>local compact w8 n=7: 18.831</title></circle>
<circle cx="370.7" cy="161.1" r="4" fill="#CC79A7"><title>local compact w8 n=8: 22.343</title></circle>
<circle cx="441.8" cy="151.8" r="4" fill="#CC79A7"><title>local compact w8 n=9: 26.048</title></circle>
<circle cx="513.0" cy="143.3" r="4" fill="#CC79A7"><title>local compact w8 n=10: 29.946</title></circle>
<circle cx="584.2" cy="135.5" r="4" fill="#CC79A7"><title>local compact w8 n=11: 34.038</title></circle>
<circle cx="655.3" cy="128.3" r="4" fill="#CC79A7"><title>local compact w8 n=12: 38.323</title></circle>
<circle cx="726.5" cy="121.6" r="4" fill="#CC79A7"><title>local compact w8 n=13: 42.802</title></circle>
<circle cx="797.7" cy="115.3" r="4" fill="#CC79A7"><title>local compact w8 n=14: 47.474</title></circle>
<circle cx="868.8" cy="109.4" r="4" fill="#CC79A7"><title>local compact w8 n=15: 52.339</title></circle>
<circle cx="940.0" cy="103.8" r="4" fill="#CC79A7"><title>local compact w8 n=16: 57.397</title></circle>
<line x1="750.0" y1="430.0" x2="778.0" y2="430.0" stroke="#CC79A7" stroke-width="2" stroke-dasharray="12 4"/>
<circle cx="764.0" cy="430.0" r="3" fill="#CC79A7"/>
<text x="786.0" y="430.0" font-family="Arial" font-size="12" dominant-baseline="middle" fill="#111827">local compact w8</text>
<polyline fill="none" stroke="#E69F00" stroke-width="2" stroke-dasharray="4 3" points="86.0,202.8 157.2,183.2 228.3,167.8 299.5,155.0 370.7,144.1 441.8,134.5 513.0,125.9 584.2,118.1 655.3,111.0 726.5,104.4 797.7,98.3 868.8,92.5 940.0,87.1"/>
<circle cx="86.0" cy="202.8" r="4" fill="#E69F00"><title>local compact w16 n=4: 11.257</title></circle>
<circle cx="157.2" cy="183.2" r="4" fill="#E69F00"><title>local compact w16 n=5: 15.542</title></circle>
<circle cx="228.3" cy="167.8" r="4" fill="#E69F00"><title>local compact w16 n=6: 20.021</title></circle>
<circle cx="299.5" cy="155.0" r="4" fill="#E69F00"><title>local compact w16 n=7: 24.692</title></circle>
<circle cx="370.7" cy="144.1" r="4" fill="#E69F00"><title>local compact w16 n=8: 29.558</title></circle>
<circle cx="441.8" cy="134.5" r="4" fill="#E69F00"><title>local compact w16 n=9: 34.616</title></circle>
<circle cx="513.0" cy="125.9" r="4" fill="#E69F00"><title>local compact w16 n=10: 39.868</title></circle>
<circle cx="584.2" cy="118.1" r="4" fill="#E69F00"><title>local compact w16 n=11: 45.313</title></circle>
<circle cx="655.3" cy="111.0" r="4" fill="#E69F00"><title>local compact w16 n=12: 50.952</title></circle>
<circle cx="726.5" cy="104.4" r="4" fill="#E69F00"><title>local compact w16 n=13: 56.784</title></circle>
<circle cx="797.7" cy="98.3" r="4" fill="#E69F00"><title>local compact w16 n=14: 62.810</title></circle>
<circle cx="868.8" cy="92.5" r="4" fill="#E69F00"><title>local compact w16 n=15: 69.028</title></circle>
<circle cx="940.0" cy="87.1" r="4" fill="#E69F00"><title>local compact w16 n=16: 75.440</title></circle>
<line x1="90.0" y1="454.0" x2="118.0" y2="454.0" stroke="#E69F00" stroke-width="2" stroke-dasharray="4 3"/>
<circle cx="104.0" cy="454.0" r="3" fill="#E69F00"/>
<text x="126.0" y="454.0" font-family="Arial" font-size="12" dominant-baseline="middle" fill="#111827">local compact w16</text>
<polyline fill="none" stroke="#56B4E9" stroke-width="2" stroke-dasharray="none" points="86.0,213.6 157.2,201.0 228.3,189.8 299.5,179.6 370.7,170.3 441.8,161.6 513.0,153.6 584.2,146.1 655.3,139.1 726.5,132.4 797.7,126.2 868.8,120.2 940.0,114.5"/>
<circle cx="86.0" cy="213.6" r="4" fill="#56B4E9"><title>network compact w1 n=4: 9.429</title></circle>
<circle cx="157.2" cy="201.0" r="4" fill="#56B4E9"><title>network compact w1 n=5: 11.587</title></circle>
<circle cx="228.3" cy="189.8" r="4" fill="#56B4E9"><title>network compact w1 n=6: 13.938</title></circle>
<circle cx="299.5" cy="179.6" r="4" fill="#56B4E9"><title>network compact w1 n=7: 16.483</title></circle>
<circle cx="370.7" cy="170.3" r="4" fill="#56B4E9"><title>network compact w1 n=8: 19.222</title></circle>
<circle cx="441.8" cy="161.6" r="4" fill="#56B4E9"><title>network compact w1 n=9: 22.153</title></circle>
<circle cx="513.0" cy="153.6" r="4" fill="#56B4E9"><title>network compact w1 n=10: 25.278</title></circle>
<circle cx="584.2" cy="146.1" r="4" fill="#56B4E9"><title>network compact w1 n=11: 28.597</title></circle>
<circle cx="655.3" cy="139.1" r="4" fill="#56B4E9"><title>network compact w1 n=12: 32.108</title></circle>
<circle cx="726.5" cy="132.4" r="4" fill="#56B4E9"><title>network compact w1 n=13: 35.813</title></circle>
<circle cx="797.7" cy="126.2" r="4" fill="#56B4E9"><title>network compact w1 n=14: 39.712</title></circle>
<circle cx="868.8" cy="120.2" r="4" fill="#56B4E9"><title>network compact w1 n=15: 43.804</title></circle>
<circle cx="940.0" cy="114.5" r="4" fill="#56B4E9"><title>network compact w1 n=16: 48.089</title></circle>
<line x1="310.0" y1="454.0" x2="338.0" y2="454.0" stroke="#56B4E9" stroke-width="2" stroke-dasharray="none"/>
<circle cx="324.0" cy="454.0" r="3" fill="#56B4E9"/>
<text x="346.0" y="454.0" font-family="Arial" font-size="12" dominant-baseline="middle" fill="#111827">network compact w1</text>
<polyline fill="none" stroke="#6B7280" stroke-width="2" stroke-dasharray="6 4" points="86.0,219.0 157.2,205.5 228.3,193.5 299.5,182.7 370.7,172.9 441.8,163.9 513.0,155.6 584.2,147.9 655.3,140.6 726.5,133.8 797.7,127.4 868.8,121.3 940.0,115.5"/>
<circle cx="86.0" cy="219.0" r="4" fill="#6B7280"><title>network compact w2 n=4: 8.618</title></circle>
<circle cx="157.2" cy="205.5" r="4" fill="#6B7280"><title>network compact w2 n=5: 10.776</title></circle>
<circle cx="228.3" cy="193.5" r="4" fill="#6B7280"><title>network compact w2 n=6: 13.128</title></circle>
<circle cx="299.5" cy="182.7" r="4" fill="#6B7280"><title>network compact w2 n=7: 15.673</title></circle>
<circle cx="370.7" cy="172.9" r="4" fill="#6B7280"><title>network compact w2 n=8: 18.411</title></circle>
<circle cx="441.8" cy="163.9" r="4" fill="#6B7280"><title>network compact w2 n=9: 21.343</title></circle>
<circle cx="513.0" cy="155.6" r="4" fill="#6B7280"><title>network compact w2 n=10: 24.468</title></circle>
<circle cx="584.2" cy="147.9" r="4" fill="#6B7280"><title>network compact w2 n=11: 27.786</title></circle>
<circle cx="655.3" cy="140.6" r="4" fill="#6B7280"><title>network compact w2 n=12: 31.298</title></circle>
<circle cx="726.5" cy="133.8" r="4" fill="#6B7280"><title>network compact w2 n=13: 35.003</title></circle>
<circle cx="797.7" cy="127.4" r="4" fill="#6B7280"><title>network compact w2 n=14: 38.901</title></circle>
<circle cx="868.8" cy="121.3" r="4" fill="#6B7280"><title>network compact w2 n=15: 42.993</title></circle>
<circle cx="940.0" cy="115.5" r="4" fill="#6B7280"><title>network compact w2 n=16: 47.278</title></circle>
<line x1="530.0" y1="454.0" x2="558.0" y2="454.0" stroke="#6B7280" stroke-width="2" stroke-dasharray="6 4"/>
<circle cx="544.0" cy="454.0" r="3" fill="#6B7280"/>
<text x="566.0" y="454.0" font-family="Arial" font-size="12" dominant-baseline="middle" fill="#111827">network compact w2</text>
<polyline fill="none" stroke="#0072B2" stroke-width="2" stroke-dasharray="2 4" points="86.0,219.4 157.2,204.7 228.3,191.9 299.5,180.7 370.7,170.5 441.8,161.3 513.0,152.9 584.2,145.1 655.3,137.8 726.5,131.0 797.7,124.5 868.8,118.5 940.0,112.7"/>
<circle cx="86.0" cy="219.4" r="4" fill="#0072B2"><title>network compact w4 n=4: 8.567</title></circle>
<circle cx="157.2" cy="204.7" r="4" fill="#0072B2"><title>network compact w4 n=5: 10.919</title></circle>
<circle cx="228.3" cy="191.9" r="4" fill="#0072B2"><title>network compact w4 n=6: 13.464</title></circle>
<circle cx="299.5" cy="180.7" r="4" fill="#0072B2"><title>network compact w4 n=7: 16.202</title></circle>
<circle cx="370.7" cy="170.5" r="4" fill="#0072B2"><title>network compact w4 n=8: 19.134</title></circle>
<circle cx="441.8" cy="161.3" r="4" fill="#0072B2"><title>network compact w4 n=9: 22.259</title></circle>
<circle cx="513.0" cy="152.9" r="4" fill="#0072B2"><title>network compact w4 n=10: 25.577</title></circle>
<circle cx="584.2" cy="145.1" r="4" fill="#0072B2"><title>network compact w4 n=11: 29.089</title></circle>
<circle cx="655.3" cy="137.8" r="4" fill="#0072B2"><title>network compact w4 n=12: 32.794</title></circle>
<circle cx="726.5" cy="131.0" r="4" fill="#0072B2"><title>network compact w4 n=13: 36.692</title></circle>
<circle cx="797.7" cy="124.5" r="4" fill="#0072B2"><title>network compact w4 n=14: 40.784</title></circle>
<circle cx="868.8" cy="118.5" r="4" fill="#0072B2"><title>network compact w4 n=15: 45.069</title></circle>
<circle cx="940.0" cy="112.7" r="4" fill="#0072B2"><title>network compact w4 n=16: 49.548</title></circle>
<line x1="750.0" y1="454.0" x2="778.0" y2="454.0" stroke="#0072B2" stroke-width="2" stroke-dasharray="2 4"/>
<circle cx="764.0" cy="454.0" r="3" fill="#0072B2"/>
<text x="786.0" y="454.0" font-family="Arial" font-size="12" dominant-baseline="middle" fill="#111827">network compact w4</text>
<polyline fill="none" stroke="#D55E00" stroke-width="2" stroke-dasharray="12 4" points="86.0,213.4 157.2,197.0 228.3,183.3 299.5,171.5 370.7,161.1 441.8,151.8 513.0,143.3 584.2,135.5 655.3,128.3 726.5,121.6 797.7,115.3 868.8,109.4 940.0,103.8"/>
<circle cx="86.0" cy="213.4" r="4" fill="#D55E00"><title>network compact w8 n=4: 9.456</title></circle>
<circle cx="157.2" cy="197.0" r="4" fill="#D55E00"><title>network compact w8 n=5: 12.388</title></circle>
<circle cx="228.3" cy="183.3" r="4" fill="#D55E00"><title>network compact w8 n=6: 15.513</title></circle>
<circle cx="299.5" cy="171.5" r="4" fill="#D55E00"><title>network compact w8 n=7: 18.831</title></circle>
<circle cx="370.7" cy="161.1" r="4" fill="#D55E00"><title>network compact w8 n=8: 22.343</title></circle>
<circle cx="441.8" cy="151.8" r="4" fill="#D55E00"><title>network compact w8 n=9: 26.048</title></circle>
<circle cx="513.0" cy="143.3" r="4" fill="#D55E00"><title>network compact w8 n=10: 29.946</title></circle>
<circle cx="584.2" cy="135.5" r="4" fill="#D55E00"><title>network compact w8 n=11: 34.038</title></circle>
<circle cx="655.3" cy="128.3" r="4" fill="#D55E00"><title>network compact w8 n=12: 38.323</title></circle>
<circle cx="726.5" cy="121.6" r="4" fill="#D55E00"><title>network compact w8 n=13: 42.802</title></circle>
<circle cx="797.7" cy="115.3" r="4" fill="#D55E00"><title>network compact w8 n=14: 47.474</title></circle>
<circle cx="868.8" cy="109.4" r="4" fill="#D55E00"><title>network compact w8 n=15: 52.339</title></circle>
<circle cx="940.0" cy="103.8" r="4" fill="#D55E00"><title>network compact w8 n=16: 57.397</title></circle>
<line x1="90.0" y1="478.0" x2="118.0" y2="478.0" stroke="#D55E00" stroke-width="2" stroke-dasharray="12 4"/>
<circle cx="104.0" cy="478.0" r="3" fill="#D55E00"/>
<text x="126.0" y="478.0" font-family="Arial" font-size="12" dominant-baseline="middle" fill="#111827">network compact w8</text>
<polyline fill="none" stroke="#009E73" stroke-width="2" stroke-dasharray="4 3" points="86.0,202.8 157.2,183.2 228.3,167.8 299.5,155.0 370.7,144.1 441.8,134.5 513.0,125.9 584.2,118.1 655.3,111.0 726.5,104.4 797.7,98.3 868.8,92.5 940.0,87.1"/>
<circle cx="86.0" cy="202.8" r="4" fill="#009E73"><title>network compact w16 n=4: 11.257</title></circle>
<circle cx="157.2" cy="183.2" r="4" fill="#009E73"><title>network compact w16 n=5: 15.542</title></circle>
<circle cx="228.3" cy="167.8" r="4" fill="#009E73"><title>network compact w16 n=6: 20.021</title></circle>
<circle cx="299.5" cy="155.0" r="4" fill="#009E73"><title>network compact w16 n=7: 24.692</title></circle>
<circle cx="370.7" cy="144.1" r="4" fill="#009E73"><title>network compact w16 n=8: 29.558</title></circle>
<circle cx="441.8" cy="134.5" r="4" fill="#009E73"><title>network compact w16 n=9: 34.616</title></circle>
<circle cx="513.0" cy="125.9" r="4" fill="#009E73"><title>network compact w16 n=10: 39.868</title></circle>
<circle cx="584.2" cy="118.1" r="4" fill="#009E73"><title>network compact w16 n=11: 45.313</title></circle>
<circle cx="655.3" cy="111.0" r="4" fill="#009E73"><title>network compact w16 n=12: 50.952</title></circle>
<circle cx="726.5" cy="104.4" r="4" fill="#009E73"><title>network compact w16 n=13: 56.784</title></circle>
<circle cx="797.7" cy="98.3" r="4" fill="#009E73"><title>network compact w16 n=14: 62.810</title></circle>
<circle cx="868.8" cy="92.5" r="4" fill="#009E73"><title>network compact w16 n=15: 69.028</title></circle>
<circle cx="940.0" cy="87.1" r="4" fill="#009E73"><title>network compact w16 n=16: 75.440</title></circle>
<line x1="310.0" y1="478.0" x2="338.0" y2="478.0" stroke="#009E73" stroke-width="2" stroke-dasharray="4 3"/>
<circle cx="324.0" cy="478.0" r="3" fill="#009E73"/>
<text x="346.0" y="478.0" font-family="Arial" font-size="12" dominant-baseline="middle" fill="#111827">network compact w16</text>
</svg>
