<svg xmlns="http://www.w3.org/2000/svg" width="980" height="560" viewBox="0 0 980 560" shape-rendering="geometricPrecision">
<style>
text { font-family: Arial, Helvetica, sans-serif; fill: #111827; }
.title { font-size: 18px; font-weight: 700; }
.subtitle { font-size: 11px; fill: #4b5563; }
.axis-label { font-size: 13px; font-weight: 600; fill: #111827; }
.tick-label { font-size: 11px; fill: #374151; }
.grid { stroke: #e5e7eb; stroke-width: 0.8; }
.axis { stroke: #111827; stroke-width: 1.3; }
.series-line { stroke-width: 2.5; stroke-linecap: round; stroke-linejoin: round; }
.diagnostic-line { stroke: #6b7280; stroke-width: 1.6; stroke-dasharray: 2 4; stroke-linecap: round; opacity: 0.48; }
.ideal-line { stroke: #6b7280; stroke-width: 1.8; stroke-dasharray: 6 5; stroke-linecap: round; }
.marker { stroke-width: 2; }
.legend-box { fill: #ffffff; stroke: #d1d5db; stroke-width: 0.9; }
.legend-entry text { font-size: 12px; fill: #111827; }
</style>
<rect width="100%" height="100%" fill="#ffffff" />
<text class="title" x="92" y="34">PCS worker scaling at max size</text>
<text class="subtitle" x="92" y="54">Speedup is measured against the same runner/opening at workers=1. Dashed line is the perfect-scaling upper bound.</text>
<line class="axis" x1="92.0" y1="436.0" x2="732.0" y2="436.0" />
<line class="axis" x1="92.0" y1="76.0" x2="92.0" y2="436.0" />
<text class="axis-label" x="412.0" y="526" text-anchor="middle">Workers</text>
<text class="axis-label" x="24" y="256.0" text-anchor="middle" transform="rotate(-90 24,256.0)">Commit+open speedup</text>
<line class="grid" x1="92.0" y1="436.0" x2="732.0" y2="436.0" />
<text class="tick-label" x="82.0" y="440.0" text-anchor="end">0</text>
<line class="grid" x1="92.0" y1="391.0" x2="732.0" y2="391.0" />
<text class="tick-label" x="82.0" y="395.0" text-anchor="end">2</text>
<line class="grid" x1="92.0" y1="346.0" x2="732.0" y2="346.0" />
<text class="tick-label" x="82.0" y="350.0" text-anchor="end">4</text>
<line class="grid" x1="92.0" y1="301.0" x2="732.0" y2="301.0" />
<text class="tick-label" x="82.0" y="305.0" text-anchor="end">6</text>
<line class="grid" x1="92.0" y1="256.0" x2="732.0" y2="256.0" />
<text class="tick-label" x="82.0" y="260.0" text-anchor="end">8</text>
<line class="grid" x1="92.0" y1="211.0" x2="732.0" y2="211.0" />
<text class="tick-label" x="82.0" y="215.0" text-anchor="end">10</text>
<line class="grid" x1="92.0" y1="166.0" x2="732.0" y2="166.0" />
<text class="tick-label" x="82.0" y="170.0" text-anchor="end">12</text>
<line class="grid" x1="92.0" y1="121.0" x2="732.0" y2="121.0" />
<text class="tick-label" x="82.0" y="125.0" text-anchor="end">14</text>
<line class="grid" x1="92.0" y1="76.0" x2="732.0" y2="76.0" />
<text class="tick-label" x="82.0" y="80.0" text-anchor="end">16</text>
<line class="grid" x1="92.0" y1="76.0" x2="92.0" y2="436.0" />
<line class="axis" x1="92.0" y1="436.0" x2="92.0" y2="441.0" />
<text class="tick-label" x="92.0" y="457.0" text-anchor="middle">1</text>
<line class="grid" x1="134.7" y1="76.0" x2="134.7" y2="436.0" />
<line class="axis" x1="134.7" y1="436.0" x2="134.7" y2="441.0" />
<text class="tick-label" x="134.7" y="457.0" text-anchor="middle">2</text>
<line class="grid" x1="220.0" y1="76.0" x2="220.0" y2="436.0" />
<line class="axis" x1="220.0" y1="436.0" x2="220.0" y2="441.0" />
<text class="tick-label" x="220.0" y="457.0" text-anchor="middle">4</text>
<line class="grid" x1="390.7" y1="76.0" x2="390.7" y2="436.0" />
<line class="axis" x1="390.7" y1="436.0" x2="390.7" y2="441.0" />
<text class="tick-label" x="390.7" y="457.0" text-anchor="middle">8</text>
<line class="grid" x1="732.0" y1="76.0" x2="732.0" y2="436.0" />
<line class="axis" x1="732.0" y1="436.0" x2="732.0" y2="441.0" />
<text class="tick-label" x="732.0" y="457.0" text-anchor="middle">16</text>
<rect class="legend-box" x="750" y="66" width="208" height="102.0" />
<polyline class="series-line" fill="none" stroke="#0072B2" points="92.0,413.5 134.7,400.0 220.0,385.1 390.7,372.3 732.0,362.0" />
<circle class="marker" cx="92.0" cy="413.5" r="4.2" fill="#ffffff" stroke="#0072B2" />
<circle class="marker" cx="134.7" cy="400.0" r="4.2" fill="#ffffff" stroke="#0072B2" />
<circle class="marker" cx="220.0" cy="385.1" r="4.2" fill="#ffffff" stroke="#0072B2" />
<circle class="marker" cx="390.7" cy="372.3" r="4.2" fill="#ffffff" stroke="#0072B2" />
<circle class="marker" cx="732.0" cy="362.0" r="4.2" fill="#ffffff" stroke="#0072B2" />
<g class="legend-entry" transform="translate(765,88)"><line x1="0" y1="0" x2="24" y2="0" stroke="#0072B2" stroke-width="2.4" /><circle class="marker" cx="12.0" cy="0.0" r="4.2" fill="#ffffff" stroke="#0072B2" />
<text x="34" y="4">local compact</text></g>
<polyline class="series-line" fill="none" stroke="#D55E00" points="92.0,413.5 134.7,408.1 220.0,383.6 390.7,335.0 732.0,249.3" />
<rect class="marker" x="87.8" y="409.3" width="8.4" height="8.4" fill="#ffffff" stroke="#D55E00" />
<rect class="marker" x="130.5" y="403.9" width="8.4" height="8.4" fill="#ffffff" stroke="#D55E00" />
<rect class="marker" x="215.8" y="379.4" width="8.4" height="8.4" fill="#ffffff" stroke="#D55E00" />
<rect class="marker" x="386.5" y="330.8" width="8.4" height="8.4" fill="#ffffff" stroke="#D55E00" />
<rect class="marker" x="727.8" y="245.1" width="8.4" height="8.4" fill="#ffffff" stroke="#D55E00" />
<g class="legend-entry" transform="translate(765,112)"><line x1="0" y1="0" x2="24" y2="0" stroke="#D55E00" stroke-width="2.4" /><rect class="marker" x="7.8" y="-4.2" width="8.4" height="8.4" fill="#ffffff" stroke="#D55E00" />
<text x="34" y="4">network compact</text></g>
<polyline class="ideal-line" fill="none" points="92.0,413.5 134.7,391.0 220.0,346.0 390.7,256.0 732.0,76.0" />
<g class="legend-entry" transform="translate(765,136)"><line x1="0" y1="0" x2="24" y2="0" class="ideal-line"/><text x="34" y="4">Perfect upper bound</text></g>
</svg>
