<svg xmlns="http://www.w3.org/2000/svg" width="960" height="420" viewBox="0 0 960 420">
<rect width="960" height="420" fill="white" />
<text x="70" y="35" font-size="20" font-family="sans-serif">Worker scaling at size 8</text>
<text x="20" y="215" font-size="12" font-family="sans-serif" transform="rotate(-90 20,215)">speedup vs one worker</text>
<text x="410" y="390" font-size="12" font-family="sans-serif">size / workers</text>
<line x1="70" y1="330" x2="770" y2="330" stroke="#222" />
<line x1="70" y1="70" x2="70" y2="330" stroke="#222" />
<polyline fill="none" stroke="#1f77b4" stroke-width="2" points="70.0,200.0 770.0,181.2" />
<text x="790" y="80" font-size="12" fill="#1f77b4">r1cs</text>
<polyline fill="none" stroke="#d62728" stroke-width="2" points="70.0,200.0 770.0,162.3" />
<text x="790" y="98" font-size="12" fill="#d62728">plonkish</text>
<polyline fill="none" stroke="#666" stroke-dasharray="4 4" stroke-width="1.5" points="70.0,200.0 770.0,70.0" />
<text x="790" y="116" font-size="12" fill="#666">ideal linear</text>
<line x1="70.0" y1="330" x2="70.0" y2="335" stroke="#222" /><text x="70.0" y="352" font-size="11" text-anchor="middle">1</text>
<line x1="770.0" y1="330" x2="770.0" y2="335" stroke="#222" /><text x="770.0" y="352" font-size="11" text-anchor="middle">2</text>
<line x1="65" y1="330.0" x2="70" y2="330.0" stroke="#222" /><text x="58" y="334.0" font-size="11" text-anchor="end">0.0</text>
<line x1="65" y1="265.0" x2="70" y2="265.0" stroke="#222" /><text x="58" y="269.0" font-size="11" text-anchor="end">0.5</text>
<line x1="65" y1="200.0" x2="70" y2="200.0" stroke="#222" /><text x="58" y="204.0" font-size="11" text-anchor="end">1.0</text>
<line x1="65" y1="135.0" x2="70" y2="135.0" stroke="#222" /><text x="58" y="139.0" font-size="11" text-anchor="end">1.5</text>
<line x1="65" y1="70.0" x2="70" y2="70.0" stroke="#222" /><text x="58" y="74.0" font-size="11" text-anchor="end">2.0</text>
</svg>
