<svg xmlns="http://www.w3.org/2000/svg" width="980" height="1280" viewBox="0 0 980 1280">
<rect width="100%" height="100%" fill="#ffffff"/>
<text x="24" y="32" font-family="Arial" font-size="18" fill="#111827">dePCS BaseFold vs DeepFold vs external PCS proof size</text>
<text x="24" y="54" font-family="Arial" font-size="12" fill="#4b5563">Verifier-received commitment plus PCS opening proof in KiB by nv and node count; blocked external rows are omitted.</text>
<text x="24" y="101" font-family="Arial" font-size="12" fill="#111827">LigeSIS dLigesis nodes=2 nv=18</text>
<rect x="260" y="84" width="71.7" height="20" fill="#d97706"/>
<text x="339.7" y="99" font-family="Arial" font-size="12" fill="#111827">218.510 KiB</text>
<text x="24" y="135" font-family="Arial" font-size="12" fill="#111827">dFRIttata-PCS nodes=2 nv=18</text>
<rect x="260" y="118" width="321.1" height="20" fill="#d97706"/>
<text x="589.1" y="133" font-family="Arial" font-size="12" fill="#111827">978.530 KiB</text>
<text x="24" y="169" font-family="Arial" font-size="12" fill="#111827">dPIP-FRI-PCS nodes=2 nv=18</text>
<rect x="260" y="152" width="42.8" height="20" fill="#d97706"/>
<text x="310.8" y="167" font-family="Arial" font-size="12" fill="#111827">130.450 KiB</text>
<text x="24" y="203" font-family="Arial" font-size="12" fill="#111827">dePCS_Basefold nodes=2 nv=18</text>
<rect x="260" y="186" width="227.5" height="20" fill="#2563eb"/>
<text x="495.5" y="201" font-family="Arial" font-size="12" fill="#111827">693.297 KiB</text>
<text x="24" y="237" font-family="Arial" font-size="12" fill="#111827">dePCS_Deepfold nodes=2 nv=18</text>
<rect x="260" y="220" width="143.6" height="20" fill="#2563eb"/>
<text x="411.6" y="235" font-family="Arial" font-size="12" fill="#111827">437.578 KiB</text>
<text x="24" y="271" font-family="Arial" font-size="12" fill="#111827">LigeSIS dLigesis nodes=2 nv=19</text>
<rect x="260" y="254" width="72.9" height="20" fill="#d97706"/>
<text x="340.9" y="269" font-family="Arial" font-size="12" fill="#111827">222.260 KiB</text>
<text x="24" y="305" font-family="Arial" font-size="12" fill="#111827">dFRIttata-PCS nodes=2 nv=19</text>
<rect x="260" y="288" width="369.7" height="20" fill="#d97706"/>
<text x="637.7" y="303" font-family="Arial" font-size="12" fill="#111827">1126.588 KiB</text>
<text x="24" y="339" font-family="Arial" font-size="12" fill="#111827">dPIP-FRI-PCS nodes=2 nv=19</text>
<rect x="260" y="322" width="50.9" height="20" fill="#d97706"/>
<text x="318.9" y="337" font-family="Arial" font-size="12" fill="#111827">155.020 KiB</text>
<text x="24" y="373" font-family="Arial" font-size="12" fill="#111827">dePCS_Basefold nodes=2 nv=19</text>
<rect x="260" y="356" width="259.2" height="20" fill="#2563eb"/>
<text x="527.2" y="371" font-family="Arial" font-size="12" fill="#111827">789.922 KiB</text>
<text x="24" y="407" font-family="Arial" font-size="12" fill="#111827">dePCS_Deepfold nodes=2 nv=19</text>
<rect x="260" y="390" width="171.6" height="20" fill="#2563eb"/>
<text x="439.6" y="405" font-family="Arial" font-size="12" fill="#111827">522.828 KiB</text>
<text x="24" y="441" font-family="Arial" font-size="12" fill="#111827">LigeSIS dLigesis nodes=2 nv=20</text>
<rect x="260" y="424" width="79.2" height="20" fill="#d97706"/>
<text x="347.2" y="439" font-family="Arial" font-size="12" fill="#111827">241.470 KiB</text>
<text x="24" y="475" font-family="Arial" font-size="12" fill="#111827">dFRIttata-PCS nodes=2 nv=20</text>
<rect x="260" y="458" width="414.7" height="20" fill="#d97706"/>
<text x="682.7" y="473" font-family="Arial" font-size="12" fill="#111827">1263.609 KiB</text>
<text x="24" y="509" font-family="Arial" font-size="12" fill="#111827">dPIP-FRI-PCS nodes=2 nv=20</text>
<rect x="260" y="492" width="59.6" height="20" fill="#d97706"/>
<text x="327.6" y="507" font-family="Arial" font-size="12" fill="#111827">181.610 KiB</text>
<text x="24" y="543" font-family="Arial" font-size="12" fill="#111827">dePCS_Basefold nodes=2 nv=20</text>
<rect x="260" y="526" width="297.2" height="20" fill="#2563eb"/>
<text x="565.2" y="541" font-family="Arial" font-size="12" fill="#111827">905.562 KiB</text>
<text x="24" y="577" font-family="Arial" font-size="12" fill="#111827">dePCS_Deepfold nodes=2 nv=20</text>
<rect x="260" y="560" width="197.7" height="20" fill="#2563eb"/>
<text x="465.7" y="575" font-family="Arial" font-size="12" fill="#111827">602.500 KiB</text>
<text x="24" y="611" font-family="Arial" font-size="12" fill="#111827">LigeSIS dLigesis nodes=2 nv=21</text>
<rect x="260" y="594" width="80.5" height="20" fill="#d97706"/>
<text x="348.5" y="609" font-family="Arial" font-size="12" fill="#111827">245.300 KiB</text>
<text x="24" y="645" font-family="Arial" font-size="12" fill="#111827">dFRIttata-PCS nodes=2 nv=21</text>
<rect x="260" y="628" width="463.5" height="20" fill="#d97706"/>
<text x="731.5" y="643" font-family="Arial" font-size="12" fill="#111827">1412.330 KiB</text>
<text x="24" y="679" font-family="Arial" font-size="12" fill="#111827">dPIP-FRI-PCS nodes=2 nv=21</text>
<rect x="260" y="662" width="69.1" height="20" fill="#d97706"/>
<text x="337.1" y="677" font-family="Arial" font-size="12" fill="#111827">210.580 KiB</text>
<text x="24" y="713" font-family="Arial" font-size="12" fill="#111827">dePCS_Basefold nodes=2 nv=21</text>
<rect x="260" y="696" width="335.4" height="20" fill="#2563eb"/>
<text x="603.4" y="711" font-family="Arial" font-size="12" fill="#111827">1022.109 KiB</text>
<text x="24" y="747" font-family="Arial" font-size="12" fill="#111827">dePCS_Deepfold nodes=2 nv=21</text>
<rect x="260" y="730" width="225.2" height="20" fill="#2563eb"/>
<text x="493.2" y="745" font-family="Arial" font-size="12" fill="#111827">686.188 KiB</text>
<text x="24" y="781" font-family="Arial" font-size="12" fill="#111827">LigeSIS dLigesis nodes=2 nv=22</text>
<rect x="260" y="764" width="87.2" height="20" fill="#d97706"/>
<text x="355.2" y="779" font-family="Arial" font-size="12" fill="#111827">265.570 KiB</text>
<text x="24" y="815" font-family="Arial" font-size="12" fill="#111827">dFRIttata-PCS nodes=2 nv=22</text>
<rect x="260" y="798" width="522.2" height="20" fill="#d97706"/>
<text x="790.2" y="813" font-family="Arial" font-size="12" fill="#111827">1591.046 KiB</text>
<text x="24" y="849" font-family="Arial" font-size="12" fill="#111827">dPIP-FRI-PCS nodes=2 nv=22</text>
<rect x="260" y="832" width="78.5" height="20" fill="#d97706"/>
<text x="346.5" y="847" font-family="Arial" font-size="12" fill="#111827">239.230 KiB</text>
<text x="24" y="883" font-family="Arial" font-size="12" fill="#111827">dePCS_Basefold nodes=2 nv=22</text>
<rect x="260" y="866" width="376.7" height="20" fill="#2563eb"/>
<text x="644.7" y="881" font-family="Arial" font-size="12" fill="#111827">1147.719 KiB</text>
<text x="24" y="917" font-family="Arial" font-size="12" fill="#111827">dePCS_Deepfold nodes=2 nv=22</text>
<rect x="260" y="900" width="257.9" height="20" fill="#2563eb"/>
<text x="525.9" y="915" font-family="Arial" font-size="12" fill="#111827">785.688 KiB</text>
<text x="24" y="951" font-family="Arial" font-size="12" fill="#111827">LigeSIS dLigesis nodes=2 nv=23</text>
<rect x="260" y="934" width="88.4" height="20" fill="#d97706"/>
<text x="356.4" y="949" font-family="Arial" font-size="12" fill="#111827">269.490 KiB</text>
<text x="24" y="985" font-family="Arial" font-size="12" fill="#111827">dFRIttata-PCS nodes=2 nv=23</text>
<rect x="260" y="968" width="580.3" height="20" fill="#d97706"/>
<text x="848.3" y="983" font-family="Arial" font-size="12" fill="#111827">1768.312 KiB</text>
<text x="24" y="1019" font-family="Arial" font-size="12" fill="#111827">dPIP-FRI-PCS nodes=2 nv=23</text>
<rect x="260" y="1002" width="91.0" height="20" fill="#d97706"/>
<text x="359.0" y="1017" font-family="Arial" font-size="12" fill="#111827">277.230 KiB</text>
<text x="24" y="1053" font-family="Arial" font-size="12" fill="#111827">dePCS_Basefold nodes=2 nv=23</text>
<rect x="260" y="1036" width="421.3" height="20" fill="#2563eb"/>
<text x="689.3" y="1051" font-family="Arial" font-size="12" fill="#111827">1283.844 KiB</text>
<text x="24" y="1087" font-family="Arial" font-size="12" fill="#111827">dePCS_Deepfold nodes=2 nv=23</text>
<rect x="260" y="1070" width="288.1" height="20" fill="#2563eb"/>
<text x="556.1" y="1085" font-family="Arial" font-size="12" fill="#111827">877.703 KiB</text>
<text x="24" y="1121" font-family="Arial" font-size="12" fill="#111827">LigeSIS dLigesis nodes=2 nv=24</text>
<rect x="260" y="1104" width="95.4" height="20" fill="#d97706"/>
<text x="363.4" y="1119" font-family="Arial" font-size="12" fill="#111827">290.820 KiB</text>
<text x="24" y="1155" font-family="Arial" font-size="12" fill="#111827">dFRIttata-PCS nodes=2 nv=24</text>
<rect x="260" y="1138" width="640.0" height="20" fill="#d97706"/>
<text x="908.0" y="1153" font-family="Arial" font-size="12" fill="#111827">1950.103 KiB</text>
<text x="24" y="1189" font-family="Arial" font-size="12" fill="#111827">dPIP-FRI-PCS nodes=2 nv=24</text>
<rect x="260" y="1172" width="109.2" height="20" fill="#d97706"/>
<text x="377.2" y="1187" font-family="Arial" font-size="12" fill="#111827">332.640 KiB</text>
<text x="24" y="1223" font-family="Arial" font-size="12" fill="#111827">dePCS_Basefold nodes=2 nv=24</text>
<rect x="260" y="1206" width="466.1" height="20" fill="#2563eb"/>
<text x="734.1" y="1221" font-family="Arial" font-size="12" fill="#111827">1420.312 KiB</text>
<text x="24" y="1257" font-family="Arial" font-size="12" fill="#111827">dePCS_Deepfold nodes=2 nv=24</text>
<rect x="260" y="1240" width="326.2" height="20" fill="#2563eb"/>
<text x="594.2" y="1255" font-family="Arial" font-size="12" fill="#111827">993.844 KiB</text>
</svg>
