<svg xmlns="http://www.w3.org/2000/svg" width="980" height="560" viewBox="0 0 980 560">
<rect width="100%" height="100%" fill="#ffffff"/>
<text x="24" y="32" font-family="Arial" font-size="18" fill="#111827">dePCS worker-local compute scalability</text>
<text x="24" y="54" font-family="Arial" font-size="12" fill="#4b5563">Speedup uses worker_commit_ms + worker_eval_commit_ms relative to the smallest requested worker count at the same nv.</text>
<line x1="76" y1="452" x2="836" y2="452" stroke="#111827" stroke-width="1"/>
<line x1="76" y1="76" x2="76" y2="452" stroke="#111827" stroke-width="1"/>
<text x="420.0" y="524" font-family="Arial" font-size="12" fill="#111827">nodes / workers</text>
<text x="18" y="264.0" font-family="Arial" font-size="12" fill="#111827" transform="rotate(-90 18 264.0)">worker-local compute speedup</text>
<line x1="76.0" y1="452" x2="76.0" y2="457" stroke="#111827"/>
<text x="72.0" y="472" font-family="Arial" font-size="10" fill="#111827">1</text>
<line x1="836.0" y1="452" x2="836.0" y2="457" stroke="#111827"/>
<text x="832.0" y="472" font-family="Arial" font-size="10" fill="#111827">2</text>
<line x1="71" y1="452.0" x2="76" y2="452.0" stroke="#111827"/>
<text x="40" y="456.0" font-family="Arial" font-size="10" fill="#111827">0</text>
<line x1="71" y1="273.0" x2="76" y2="273.0" stroke="#111827"/>
<text x="40" y="277.0" font-family="Arial" font-size="10" fill="#111827">1</text>
<line x1="71" y1="93.9" x2="76" y2="93.9" stroke="#111827"/>
<text x="40" y="97.9" font-family="Arial" font-size="10" fill="#111827">2</text>
<line x1="71" y1="-85.1" x2="76" y2="-85.1" stroke="#111827"/>
<text x="40" y="-81.1" font-family="Arial" font-size="10" fill="#111827">3</text>
<polyline points="76.0,273.0 836.0,93.9" fill="none" stroke="#9ca3af" stroke-width="2" stroke-dasharray="6 5"/>
<text x="850" y="97.9" font-family="Arial" font-size="11" fill="#4b5563">ideal</text>
<polyline points="836.0,273.0 836.0,273.0" fill="none" stroke="#2563eb" stroke-width="2"/>
<circle cx="836.0" cy="273.0" r="3.5" fill="#2563eb"/>
<circle cx="836.0" cy="273.0" r="3.5" fill="#2563eb"/>
<line x1="858" y1="76" x2="882" y2="76" stroke="#2563eb" stroke-width="2"/>
<text x="888" y="80" font-family="Arial" font-size="11" fill="#111827">nv=18</text>
<polyline points="836.0,273.0 836.0,273.0" fill="none" stroke="#d97706" stroke-width="2"/>
<circle cx="836.0" cy="273.0" r="3.5" fill="#d97706"/>
<circle cx="836.0" cy="273.0" r="3.5" fill="#d97706"/>
<line x1="858" y1="98" x2="882" y2="98" stroke="#d97706" stroke-width="2"/>
<text x="888" y="102" font-family="Arial" font-size="11" fill="#111827">nv=19</text>
<polyline points="836.0,273.0 836.0,273.0" fill="none" stroke="#059669" stroke-width="2"/>
<circle cx="836.0" cy="273.0" r="3.5" fill="#059669"/>
<circle cx="836.0" cy="273.0" r="3.5" fill="#059669"/>
<line x1="858" y1="120" x2="882" y2="120" stroke="#059669" stroke-width="2"/>
<text x="888" y="124" font-family="Arial" font-size="11" fill="#111827">nv=20</text>
<polyline points="836.0,273.0 836.0,273.0" fill="none" stroke="#7c3aed" stroke-width="2"/>
<circle cx="836.0" cy="273.0" r="3.5" fill="#7c3aed"/>
<circle cx="836.0" cy="273.0" r="3.5" fill="#7c3aed"/>
<line x1="858" y1="142" x2="882" y2="142" stroke="#7c3aed" stroke-width="2"/>
<text x="888" y="146" font-family="Arial" font-size="11" fill="#111827">nv=21</text>
<polyline points="836.0,273.0 836.0,273.0" fill="none" stroke="#dc2626" stroke-width="2"/>
<circle cx="836.0" cy="273.0" r="3.5" fill="#dc2626"/>
<circle cx="836.0" cy="273.0" r="3.5" fill="#dc2626"/>
<line x1="858" y1="164" x2="882" y2="164" stroke="#dc2626" stroke-width="2"/>
<text x="888" y="168" font-family="Arial" font-size="11" fill="#111827">nv=22</text>
<polyline points="836.0,273.0 836.0,273.0" fill="none" stroke="#0891b2" stroke-width="2"/>
<circle cx="836.0" cy="273.0" r="3.5" fill="#0891b2"/>
<circle cx="836.0" cy="273.0" r="3.5" fill="#0891b2"/>
<line x1="858" y1="186" x2="882" y2="186" stroke="#0891b2" stroke-width="2"/>
<text x="888" y="190" font-family="Arial" font-size="11" fill="#111827">nv=23</text>
<polyline points="836.0,273.0 836.0,273.0" fill="none" stroke="#4b5563" stroke-width="2"/>
<circle cx="836.0" cy="273.0" r="3.5" fill="#4b5563"/>
<circle cx="836.0" cy="273.0" r="3.5" fill="#4b5563"/>
<line x1="858" y1="208" x2="882" y2="208" stroke="#4b5563" stroke-width="2"/>
<text x="888" y="212" font-family="Arial" font-size="11" fill="#111827">nv=24</text>
</svg>
