<svg xmlns="http://www.w3.org/2000/svg" width="980" height="1280" viewBox="0 0 980 1280">
<rect width="100%" height="100%" fill="#ffffff"/>
<text x="24" y="32" font-family="Arial" font-size="18" fill="#111827">dePCS BaseFold vs DeepFold vs external PCS proof size</text>
<text x="24" y="54" font-family="Arial" font-size="12" fill="#4b5563">Verifier-received commitment plus PCS opening proof in KiB by nv and node count; blocked external rows are omitted.</text>
<text x="24" y="101" font-family="Arial" font-size="12" fill="#111827">LigeSIS dLigesis nodes=2 nv=18</text>
<rect x="260" y="84" width="71.1" height="20" fill="#d97706"/>
<text x="339.1" y="99" font-family="Arial" font-size="12" fill="#111827">218.510 KiB</text>
<text x="24" y="135" font-family="Arial" font-size="12" fill="#111827">dFRIttata-PCS nodes=2 nv=18</text>
<rect x="260" y="118" width="317.6" height="20" fill="#d97706"/>
<text x="585.6" y="133" font-family="Arial" font-size="12" fill="#111827">976.020 KiB</text>
<text x="24" y="169" font-family="Arial" font-size="12" fill="#111827">dPIP-FRI-PCS nodes=2 nv=18</text>
<rect x="260" y="152" width="44.0" height="20" fill="#d97706"/>
<text x="312.0" y="167" font-family="Arial" font-size="12" fill="#111827">135.270 KiB</text>
<text x="24" y="203" font-family="Arial" font-size="12" fill="#111827">dePCS_Basefold nodes=2 nv=18</text>
<rect x="260" y="186" width="227.8" height="20" fill="#2563eb"/>
<text x="495.8" y="201" font-family="Arial" font-size="12" fill="#111827">700.055 KiB</text>
<text x="24" y="237" font-family="Arial" font-size="12" fill="#111827">dePCS_Deepfold nodes=2 nv=18</text>
<rect x="260" y="220" width="147.2" height="20" fill="#2563eb"/>
<text x="415.2" y="235" font-family="Arial" font-size="12" fill="#111827">452.273 KiB</text>
<text x="24" y="271" font-family="Arial" font-size="12" fill="#111827">LigeSIS dLigesis nodes=2 nv=19</text>
<rect x="260" y="254" width="72.3" height="20" fill="#d97706"/>
<text x="340.3" y="269" font-family="Arial" font-size="12" fill="#111827">222.260 KiB</text>
<text x="24" y="305" font-family="Arial" font-size="12" fill="#111827">dFRIttata-PCS nodes=2 nv=19</text>
<rect x="260" y="288" width="363.4" height="20" fill="#d97706"/>
<text x="631.4" y="303" font-family="Arial" font-size="12" fill="#111827">1116.759 KiB</text>
<text x="24" y="339" font-family="Arial" font-size="12" fill="#111827">dPIP-FRI-PCS nodes=2 nv=19</text>
<rect x="260" y="322" width="52.5" height="20" fill="#d97706"/>
<text x="320.5" y="337" font-family="Arial" font-size="12" fill="#111827">161.300 KiB</text>
<text x="24" y="373" font-family="Arial" font-size="12" fill="#111827">dePCS_Basefold nodes=2 nv=19</text>
<rect x="260" y="356" width="262.9" height="20" fill="#2563eb"/>
<text x="530.9" y="371" font-family="Arial" font-size="12" fill="#111827">808.055 KiB</text>
<text x="24" y="407" font-family="Arial" font-size="12" fill="#111827">dePCS_Deepfold nodes=2 nv=19</text>
<rect x="260" y="390" width="173.0" height="20" fill="#2563eb"/>
<text x="441.0" y="405" font-family="Arial" font-size="12" fill="#111827">531.602 KiB</text>
<text x="24" y="441" font-family="Arial" font-size="12" fill="#111827">LigeSIS dLigesis nodes=2 nv=20</text>
<rect x="260" y="424" width="78.6" height="20" fill="#d97706"/>
<text x="346.6" y="439" font-family="Arial" font-size="12" fill="#111827">241.470 KiB</text>
<text x="24" y="475" font-family="Arial" font-size="12" fill="#111827">dFRIttata-PCS nodes=2 nv=20</text>
<rect x="260" y="458" width="412.6" height="20" fill="#d97706"/>
<text x="680.6" y="473" font-family="Arial" font-size="12" fill="#111827">1267.948 KiB</text>
<text x="24" y="509" font-family="Arial" font-size="12" fill="#111827">dPIP-FRI-PCS nodes=2 nv=20</text>
<rect x="260" y="492" width="59.6" height="20" fill="#d97706"/>
<text x="327.6" y="507" font-family="Arial" font-size="12" fill="#111827">183.230 KiB</text>
<text x="24" y="543" font-family="Arial" font-size="12" fill="#111827">dePCS_Basefold nodes=2 nv=20</text>
<rect x="260" y="526" width="296.1" height="20" fill="#2563eb"/>
<text x="564.1" y="541" font-family="Arial" font-size="12" fill="#111827">910.086 KiB</text>
<text x="24" y="577" font-family="Arial" font-size="12" fill="#111827">dePCS_Deepfold nodes=2 nv=20</text>
<rect x="260" y="560" width="199.6" height="20" fill="#2563eb"/>
<text x="467.6" y="575" font-family="Arial" font-size="12" fill="#111827">613.352 KiB</text>
<text x="24" y="611" font-family="Arial" font-size="12" fill="#111827">LigeSIS dLigesis nodes=2 nv=21</text>
<rect x="260" y="594" width="79.8" height="20" fill="#d97706"/>
<text x="347.8" y="609" font-family="Arial" font-size="12" fill="#111827">245.300 KiB</text>
<text x="24" y="645" font-family="Arial" font-size="12" fill="#111827">dFRIttata-PCS nodes=2 nv=21</text>
<rect x="260" y="628" width="464.7" height="20" fill="#d97706"/>
<text x="732.7" y="643" font-family="Arial" font-size="12" fill="#111827">1428.195 KiB</text>
<text x="24" y="679" font-family="Arial" font-size="12" fill="#111827">dPIP-FRI-PCS nodes=2 nv=21</text>
<rect x="260" y="662" width="69.8" height="20" fill="#d97706"/>
<text x="337.8" y="677" font-family="Arial" font-size="12" fill="#111827">214.610 KiB</text>
<text x="24" y="713" font-family="Arial" font-size="12" fill="#111827">dePCS_Basefold nodes=2 nv=21</text>
<rect x="260" y="696" width="334.1" height="20" fill="#2563eb"/>
<text x="602.1" y="711" font-family="Arial" font-size="12" fill="#111827">1026.867 KiB</text>
<text x="24" y="747" font-family="Arial" font-size="12" fill="#111827">dePCS_Deepfold nodes=2 nv=21</text>
<rect x="260" y="730" width="229.2" height="20" fill="#2563eb"/>
<text x="497.2" y="745" font-family="Arial" font-size="12" fill="#111827">704.242 KiB</text>
<text x="24" y="781" font-family="Arial" font-size="12" fill="#111827">LigeSIS dLigesis nodes=2 nv=22</text>
<rect x="260" y="764" width="86.4" height="20" fill="#d97706"/>
<text x="354.4" y="779" font-family="Arial" font-size="12" fill="#111827">265.570 KiB</text>
<text x="24" y="815" font-family="Arial" font-size="12" fill="#111827">dFRIttata-PCS nodes=2 nv=22</text>
<rect x="260" y="798" width="518.3" height="20" fill="#d97706"/>
<text x="786.3" y="813" font-family="Arial" font-size="12" fill="#111827">1592.704 KiB</text>
<text x="24" y="849" font-family="Arial" font-size="12" fill="#111827">dPIP-FRI-PCS nodes=2 nv=22</text>
<rect x="260" y="832" width="79.1" height="20" fill="#d97706"/>
<text x="347.1" y="847" font-family="Arial" font-size="12" fill="#111827">243.110 KiB</text>
<text x="24" y="883" font-family="Arial" font-size="12" fill="#111827">dePCS_Basefold nodes=2 nv=22</text>
<rect x="260" y="866" width="378.5" height="20" fill="#2563eb"/>
<text x="646.5" y="881" font-family="Arial" font-size="12" fill="#111827">1163.055 KiB</text>
<text x="24" y="917" font-family="Arial" font-size="12" fill="#111827">dePCS_Deepfold nodes=2 nv=22</text>
<rect x="260" y="900" width="260.0" height="20" fill="#2563eb"/>
<text x="528.0" y="915" font-family="Arial" font-size="12" fill="#111827">799.133 KiB</text>
<text x="24" y="951" font-family="Arial" font-size="12" fill="#111827">LigeSIS dLigesis nodes=2 nv=23</text>
<rect x="260" y="934" width="87.7" height="20" fill="#d97706"/>
<text x="355.7" y="949" font-family="Arial" font-size="12" fill="#111827">269.490 KiB</text>
<text x="24" y="985" font-family="Arial" font-size="12" fill="#111827">dFRIttata-PCS nodes=2 nv=23</text>
<rect x="260" y="968" width="574.5" height="20" fill="#d97706"/>
<text x="842.5" y="983" font-family="Arial" font-size="12" fill="#111827">1765.604 KiB</text>
<text x="24" y="1019" font-family="Arial" font-size="12" fill="#111827">dPIP-FRI-PCS nodes=2 nv=23</text>
<rect x="260" y="1002" width="93.4" height="20" fill="#d97706"/>
<text x="361.4" y="1017" font-family="Arial" font-size="12" fill="#111827">287.020 KiB</text>
<text x="24" y="1053" font-family="Arial" font-size="12" fill="#111827">dePCS_Basefold nodes=2 nv=23</text>
<rect x="260" y="1036" width="422.2" height="20" fill="#2563eb"/>
<text x="690.2" y="1051" font-family="Arial" font-size="12" fill="#111827">1297.367 KiB</text>
<text x="24" y="1087" font-family="Arial" font-size="12" fill="#111827">dePCS_Deepfold nodes=2 nv=23</text>
<rect x="260" y="1070" width="293.4" height="20" fill="#2563eb"/>
<text x="561.4" y="1085" font-family="Arial" font-size="12" fill="#111827">901.633 KiB</text>
<text x="24" y="1121" font-family="Arial" font-size="12" fill="#111827">LigeSIS dLigesis nodes=2 nv=24</text>
<rect x="260" y="1104" width="94.6" height="20" fill="#d97706"/>
<text x="362.6" y="1119" font-family="Arial" font-size="12" fill="#111827">290.820 KiB</text>
<text x="24" y="1155" font-family="Arial" font-size="12" fill="#111827">dFRIttata-PCS nodes=2 nv=24</text>
<rect x="260" y="1138" width="640.0" height="20" fill="#d97706"/>
<text x="908.0" y="1153" font-family="Arial" font-size="12" fill="#111827">1966.785 KiB</text>
<text x="24" y="1189" font-family="Arial" font-size="12" fill="#111827">dPIP-FRI-PCS nodes=2 nv=24</text>
<rect x="260" y="1172" width="108.8" height="20" fill="#d97706"/>
<text x="376.8" y="1187" font-family="Arial" font-size="12" fill="#111827">334.390 KiB</text>
<text x="24" y="1223" font-family="Arial" font-size="12" fill="#111827">dePCS_Basefold nodes=2 nv=24</text>
<rect x="260" y="1206" width="468.2" height="20" fill="#2563eb"/>
<text x="736.2" y="1221" font-family="Arial" font-size="12" fill="#111827">1438.961 KiB</text>
<text x="24" y="1257" font-family="Arial" font-size="12" fill="#111827">dePCS_Deepfold nodes=2 nv=24</text>
<rect x="260" y="1240" width="323.9" height="20" fill="#2563eb"/>
<text x="591.9" y="1255" font-family="Arial" font-size="12" fill="#111827">995.273 KiB</text>
</svg>
