<svg xmlns="http://www.w3.org/2000/svg" width="980" height="1280" viewBox="0 0 980 1280">
<rect width="100%" height="100%" fill="#ffffff"/>
<text x="24" y="32" font-family="Arial" font-size="18" fill="#111827">dePCS BaseFold vs DeepFold vs external PCS proof size</text>
<text x="24" y="54" font-family="Arial" font-size="12" fill="#4b5563">Verifier-received commitment plus PCS opening proof in KiB by nv and node count; blocked external rows are omitted.</text>
<text x="24" y="101" font-family="Arial" font-size="12" fill="#111827">LigeSIS dLigesis nodes=2 nv=18</text>
<rect x="260" y="84" width="71.8" height="20" fill="#d97706"/>
<text x="339.8" y="99" font-family="Arial" font-size="12" fill="#111827">218.510 KiB</text>
<text x="24" y="135" font-family="Arial" font-size="12" fill="#111827">dFRIttata-PCS nodes=2 nv=18</text>
<rect x="260" y="118" width="322.0" height="20" fill="#d97706"/>
<text x="590.0" y="133" font-family="Arial" font-size="12" fill="#111827">979.264 KiB</text>
<text x="24" y="169" font-family="Arial" font-size="12" fill="#111827">dPIP-FRI-PCS nodes=2 nv=18</text>
<rect x="260" y="152" width="43.7" height="20" fill="#d97706"/>
<text x="311.7" y="167" font-family="Arial" font-size="12" fill="#111827">132.770 KiB</text>
<text x="24" y="203" font-family="Arial" font-size="12" fill="#111827">dePCS_Basefold nodes=2 nv=18</text>
<rect x="260" y="186" width="227.7" height="20" fill="#2563eb"/>
<text x="495.7" y="201" font-family="Arial" font-size="12" fill="#111827">692.547 KiB</text>
<text x="24" y="237" font-family="Arial" font-size="12" fill="#111827">dePCS_Deepfold nodes=2 nv=18</text>
<rect x="260" y="220" width="146.0" height="20" fill="#2563eb"/>
<text x="414.0" y="235" font-family="Arial" font-size="12" fill="#111827">443.938 KiB</text>
<text x="24" y="271" font-family="Arial" font-size="12" fill="#111827">LigeSIS dLigesis nodes=2 nv=19</text>
<rect x="260" y="254" width="73.1" height="20" fill="#d97706"/>
<text x="341.1" y="269" font-family="Arial" font-size="12" fill="#111827">222.260 KiB</text>
<text x="24" y="305" font-family="Arial" font-size="12" fill="#111827">dFRIttata-PCS nodes=2 nv=19</text>
<rect x="260" y="288" width="366.7" height="20" fill="#d97706"/>
<text x="634.7" y="303" font-family="Arial" font-size="12" fill="#111827">1115.216 KiB</text>
<text x="24" y="339" font-family="Arial" font-size="12" fill="#111827">dPIP-FRI-PCS nodes=2 nv=19</text>
<rect x="260" y="322" width="51.8" height="20" fill="#d97706"/>
<text x="319.8" y="337" font-family="Arial" font-size="12" fill="#111827">157.670 KiB</text>
<text x="24" y="373" font-family="Arial" font-size="12" fill="#111827">dePCS_Basefold nodes=2 nv=19</text>
<rect x="260" y="356" width="261.0" height="20" fill="#2563eb"/>
<text x="529.0" y="371" font-family="Arial" font-size="12" fill="#111827">793.844 KiB</text>
<text x="24" y="407" font-family="Arial" font-size="12" fill="#111827">dePCS_Deepfold nodes=2 nv=19</text>
<rect x="260" y="390" width="170.3" height="20" fill="#2563eb"/>
<text x="438.3" y="405" font-family="Arial" font-size="12" fill="#111827">517.953 KiB</text>
<text x="24" y="441" font-family="Arial" font-size="12" fill="#111827">LigeSIS dLigesis nodes=2 nv=20</text>
<rect x="260" y="424" width="79.4" height="20" fill="#d97706"/>
<text x="347.4" y="439" font-family="Arial" font-size="12" fill="#111827">241.470 KiB</text>
<text x="24" y="475" font-family="Arial" font-size="12" fill="#111827">dFRIttata-PCS nodes=2 nv=20</text>
<rect x="260" y="458" width="415.9" height="20" fill="#d97706"/>
<text x="683.9" y="473" font-family="Arial" font-size="12" fill="#111827">1264.966 KiB</text>
<text x="24" y="509" font-family="Arial" font-size="12" fill="#111827">dPIP-FRI-PCS nodes=2 nv=20</text>
<rect x="260" y="492" width="59.6" height="20" fill="#d97706"/>
<text x="327.6" y="507" font-family="Arial" font-size="12" fill="#111827">181.200 KiB</text>
<text x="24" y="543" font-family="Arial" font-size="12" fill="#111827">dePCS_Basefold nodes=2 nv=20</text>
<rect x="260" y="526" width="296.6" height="20" fill="#2563eb"/>
<text x="564.6" y="541" font-family="Arial" font-size="12" fill="#111827">902.094 KiB</text>
<text x="24" y="577" font-family="Arial" font-size="12" fill="#111827">dePCS_Deepfold nodes=2 nv=20</text>
<rect x="260" y="560" width="198.5" height="20" fill="#2563eb"/>
<text x="466.5" y="575" font-family="Arial" font-size="12" fill="#111827">603.562 KiB</text>
<text x="24" y="611" font-family="Arial" font-size="12" fill="#111827">LigeSIS dLigesis nodes=2 nv=21</text>
<rect x="260" y="594" width="80.7" height="20" fill="#d97706"/>
<text x="348.7" y="609" font-family="Arial" font-size="12" fill="#111827">245.300 KiB</text>
<text x="24" y="645" font-family="Arial" font-size="12" fill="#111827">dFRIttata-PCS nodes=2 nv=21</text>
<rect x="260" y="628" width="466.6" height="20" fill="#d97706"/>
<text x="734.6" y="643" font-family="Arial" font-size="12" fill="#111827">1419.087 KiB</text>
<text x="24" y="679" font-family="Arial" font-size="12" fill="#111827">dPIP-FRI-PCS nodes=2 nv=21</text>
<rect x="260" y="662" width="68.7" height="20" fill="#d97706"/>
<text x="336.7" y="677" font-family="Arial" font-size="12" fill="#111827">208.950 KiB</text>
<text x="24" y="713" font-family="Arial" font-size="12" fill="#111827">dePCS_Basefold nodes=2 nv=21</text>
<rect x="260" y="696" width="335.9" height="20" fill="#2563eb"/>
<text x="603.9" y="711" font-family="Arial" font-size="12" fill="#111827">1021.547 KiB</text>
<text x="24" y="747" font-family="Arial" font-size="12" fill="#111827">dePCS_Deepfold nodes=2 nv=21</text>
<rect x="260" y="730" width="225.7" height="20" fill="#2563eb"/>
<text x="493.7" y="745" font-family="Arial" font-size="12" fill="#111827">686.531 KiB</text>
<text x="24" y="781" font-family="Arial" font-size="12" fill="#111827">LigeSIS dLigesis nodes=2 nv=22</text>
<rect x="260" y="764" width="87.3" height="20" fill="#d97706"/>
<text x="355.3" y="779" font-family="Arial" font-size="12" fill="#111827">265.570 KiB</text>
<text x="24" y="815" font-family="Arial" font-size="12" fill="#111827">dFRIttata-PCS nodes=2 nv=22</text>
<rect x="260" y="798" width="528.1" height="20" fill="#d97706"/>
<text x="796.1" y="813" font-family="Arial" font-size="12" fill="#111827">1606.132 KiB</text>
<text x="24" y="849" font-family="Arial" font-size="12" fill="#111827">dPIP-FRI-PCS nodes=2 nv=22</text>
<rect x="260" y="832" width="80.1" height="20" fill="#d97706"/>
<text x="348.1" y="847" font-family="Arial" font-size="12" fill="#111827">243.670 KiB</text>
<text x="24" y="883" font-family="Arial" font-size="12" fill="#111827">dePCS_Basefold nodes=2 nv=22</text>
<rect x="260" y="866" width="376.6" height="20" fill="#2563eb"/>
<text x="644.6" y="881" font-family="Arial" font-size="12" fill="#111827">1145.359 KiB</text>
<text x="24" y="917" font-family="Arial" font-size="12" fill="#111827">dePCS_Deepfold nodes=2 nv=22</text>
<rect x="260" y="900" width="258.3" height="20" fill="#2563eb"/>
<text x="526.3" y="915" font-family="Arial" font-size="12" fill="#111827">785.656 KiB</text>
<text x="24" y="951" font-family="Arial" font-size="12" fill="#111827">LigeSIS dLigesis nodes=2 nv=23</text>
<rect x="260" y="934" width="88.6" height="20" fill="#d97706"/>
<text x="356.6" y="949" font-family="Arial" font-size="12" fill="#111827">269.490 KiB</text>
<text x="24" y="985" font-family="Arial" font-size="12" fill="#111827">dFRIttata-PCS nodes=2 nv=23</text>
<rect x="260" y="968" width="586.4" height="20" fill="#d97706"/>
<text x="854.4" y="983" font-family="Arial" font-size="12" fill="#111827">1783.493 KiB</text>
<text x="24" y="1019" font-family="Arial" font-size="12" fill="#111827">dPIP-FRI-PCS nodes=2 nv=23</text>
<rect x="260" y="1002" width="93.6" height="20" fill="#d97706"/>
<text x="361.6" y="1017" font-family="Arial" font-size="12" fill="#111827">284.800 KiB</text>
<text x="24" y="1053" font-family="Arial" font-size="12" fill="#111827">dePCS_Basefold nodes=2 nv=23</text>
<rect x="260" y="1036" width="420.0" height="20" fill="#2563eb"/>
<text x="688.0" y="1051" font-family="Arial" font-size="12" fill="#111827">1277.281 KiB</text>
<text x="24" y="1087" font-family="Arial" font-size="12" fill="#111827">dePCS_Deepfold nodes=2 nv=23</text>
<rect x="260" y="1070" width="289.9" height="20" fill="#2563eb"/>
<text x="557.9" y="1085" font-family="Arial" font-size="12" fill="#111827">881.625 KiB</text>
<text x="24" y="1121" font-family="Arial" font-size="12" fill="#111827">LigeSIS dLigesis nodes=2 nv=24</text>
<rect x="260" y="1104" width="95.6" height="20" fill="#d97706"/>
<text x="363.6" y="1119" font-family="Arial" font-size="12" fill="#111827">290.820 KiB</text>
<text x="24" y="1155" font-family="Arial" font-size="12" fill="#111827">dFRIttata-PCS nodes=2 nv=24</text>
<rect x="260" y="1138" width="640.0" height="20" fill="#d97706"/>
<text x="908.0" y="1153" font-family="Arial" font-size="12" fill="#111827">1946.413 KiB</text>
<text x="24" y="1189" font-family="Arial" font-size="12" fill="#111827">dPIP-FRI-PCS nodes=2 nv=24</text>
<rect x="260" y="1172" width="110.7" height="20" fill="#d97706"/>
<text x="378.7" y="1187" font-family="Arial" font-size="12" fill="#111827">336.640 KiB</text>
<text x="24" y="1223" font-family="Arial" font-size="12" fill="#111827">dePCS_Basefold nodes=2 nv=24</text>
<rect x="260" y="1206" width="467.2" height="20" fill="#2563eb"/>
<text x="735.2" y="1221" font-family="Arial" font-size="12" fill="#111827">1420.906 KiB</text>
<text x="24" y="1257" font-family="Arial" font-size="12" fill="#111827">dePCS_Deepfold nodes=2 nv=24</text>
<rect x="260" y="1240" width="324.1" height="20" fill="#2563eb"/>
<text x="592.1" y="1255" font-family="Arial" font-size="12" fill="#111827">985.688 KiB</text>
</svg>
