<svg xmlns="http://www.w3.org/2000/svg" width="980" height="1280" viewBox="0 0 980 1280">
<rect width="100%" height="100%" fill="#ffffff"/>
<text x="24" y="32" font-family="Arial" font-size="18" fill="#111827">Communication cost by scheme</text>
<text x="24" y="54" font-family="Arial" font-size="12" fill="#4b5563">Blue dePCS bars use master/worker TCP sent+recv; orange external bars use scheme-native reported communication.</text>
<text x="24" y="101" font-family="Arial" font-size="12" fill="#111827">LigeSIS dLigesis nodes=2 nv=18</text>
<rect x="260" y="84" width="67.3" height="20" fill="#d97706"/>
<text x="335.3" y="99" font-family="Arial" font-size="12" fill="#111827">28006.400 KiB</text>
<text x="24" y="135" font-family="Arial" font-size="12" fill="#111827">dFRIttata-PCS nodes=2 nv=18</text>
<rect x="260" y="118" width="10.5" height="20" fill="#d97706"/>
<text x="278.5" y="133" font-family="Arial" font-size="12" fill="#111827">4371.806 KiB</text>
<text x="24" y="169" font-family="Arial" font-size="12" fill="#111827">dPIP-FRI-PCS nodes=2 nv=18</text>
<rect x="260" y="152" width="10.3" height="20" fill="#d97706"/>
<text x="278.3" y="167" font-family="Arial" font-size="12" fill="#111827">4305.645 KiB</text>
<text x="24" y="203" font-family="Arial" font-size="12" fill="#111827">dePCS_Basefold nodes=2 nv=18</text>
<rect x="260" y="186" width="1.7" height="20" fill="#2563eb"/>
<text x="269.7" y="201" font-family="Arial" font-size="12" fill="#111827">700.320 KiB</text>
<text x="24" y="237" font-family="Arial" font-size="12" fill="#111827">dePCS_Deepfold nodes=2 nv=18</text>
<rect x="260" y="220" width="1.1" height="20" fill="#2563eb"/>
<text x="269.1" y="235" font-family="Arial" font-size="12" fill="#111827">451.117 KiB</text>
<text x="24" y="271" font-family="Arial" font-size="12" fill="#111827">LigeSIS dLigesis nodes=2 nv=19</text>
<rect x="260" y="254" width="93.0" height="20" fill="#d97706"/>
<text x="361.0" y="269" font-family="Arial" font-size="12" fill="#111827">38717.440 KiB</text>
<text x="24" y="305" font-family="Arial" font-size="12" fill="#111827">dFRIttata-PCS nodes=2 nv=19</text>
<rect x="260" y="288" width="20.4" height="20" fill="#d97706"/>
<text x="288.4" y="303" font-family="Arial" font-size="12" fill="#111827">8493.150 KiB</text>
<text x="24" y="339" font-family="Arial" font-size="12" fill="#111827">dPIP-FRI-PCS nodes=2 nv=19</text>
<rect x="260" y="322" width="20.5" height="20" fill="#d97706"/>
<text x="288.5" y="337" font-family="Arial" font-size="12" fill="#111827">8533.645 KiB</text>
<text x="24" y="373" font-family="Arial" font-size="12" fill="#111827">dePCS_Basefold nodes=2 nv=19</text>
<rect x="260" y="356" width="1.9" height="20" fill="#2563eb"/>
<text x="269.9" y="371" font-family="Arial" font-size="12" fill="#111827">801.820 KiB</text>
<text x="24" y="407" font-family="Arial" font-size="12" fill="#111827">dePCS_Deepfold nodes=2 nv=19</text>
<rect x="260" y="390" width="1.3" height="20" fill="#2563eb"/>
<text x="269.3" y="405" font-family="Arial" font-size="12" fill="#111827">525.336 KiB</text>
<text x="24" y="441" font-family="Arial" font-size="12" fill="#111827">LigeSIS dLigesis nodes=2 nv=20</text>
<rect x="260" y="424" width="134.4" height="20" fill="#d97706"/>
<text x="402.4" y="439" font-family="Arial" font-size="12" fill="#111827">55941.120 KiB</text>
<text x="24" y="475" font-family="Arial" font-size="12" fill="#111827">dFRIttata-PCS nodes=2 nv=20</text>
<rect x="260" y="458" width="40.1" height="20" fill="#d97706"/>
<text x="308.1" y="473" font-family="Arial" font-size="12" fill="#111827">16713.057 KiB</text>
<text x="24" y="509" font-family="Arial" font-size="12" fill="#111827">dPIP-FRI-PCS nodes=2 nv=20</text>
<rect x="260" y="492" width="40.8" height="20" fill="#d97706"/>
<text x="308.8" y="507" font-family="Arial" font-size="12" fill="#111827">17001.676 KiB</text>
<text x="24" y="543" font-family="Arial" font-size="12" fill="#111827">dePCS_Basefold nodes=2 nv=20</text>
<rect x="260" y="526" width="2.2" height="20" fill="#2563eb"/>
<text x="270.2" y="541" font-family="Arial" font-size="12" fill="#111827">910.273 KiB</text>
<text x="24" y="577" font-family="Arial" font-size="12" fill="#111827">dePCS_Deepfold nodes=2 nv=20</text>
<rect x="260" y="560" width="1.5" height="20" fill="#2563eb"/>
<text x="269.5" y="575" font-family="Arial" font-size="12" fill="#111827">611.148 KiB</text>
<text x="24" y="611" font-family="Arial" font-size="12" fill="#111827">LigeSIS dLigesis nodes=2 nv=21</text>
<rect x="260" y="594" width="185.9" height="20" fill="#d97706"/>
<text x="453.9" y="609" font-family="Arial" font-size="12" fill="#111827">77373.440 KiB</text>
<text x="24" y="645" font-family="Arial" font-size="12" fill="#111827">dFRIttata-PCS nodes=2 nv=21</text>
<rect x="260" y="628" width="79.6" height="20" fill="#d97706"/>
<text x="347.6" y="643" font-family="Arial" font-size="12" fill="#111827">33120.804 KiB</text>
<text x="24" y="679" font-family="Arial" font-size="12" fill="#111827">dPIP-FRI-PCS nodes=2 nv=21</text>
<rect x="260" y="662" width="81.4" height="20" fill="#d97706"/>
<text x="349.4" y="677" font-family="Arial" font-size="12" fill="#111827">33899.613 KiB</text>
<text x="24" y="713" font-family="Arial" font-size="12" fill="#111827">dePCS_Basefold nodes=2 nv=21</text>
<rect x="260" y="696" width="2.5" height="20" fill="#2563eb"/>
<text x="270.5" y="711" font-family="Arial" font-size="12" fill="#111827">1029.930 KiB</text>
<text x="24" y="747" font-family="Arial" font-size="12" fill="#111827">dePCS_Deepfold nodes=2 nv=21</text>
<rect x="260" y="730" width="1.7" height="20" fill="#2563eb"/>
<text x="269.7" y="745" font-family="Arial" font-size="12" fill="#111827">694.320 KiB</text>
<text x="24" y="781" font-family="Arial" font-size="12" fill="#111827">LigeSIS dLigesis nodes=2 nv=22</text>
<rect x="260" y="764" width="268.6" height="20" fill="#d97706"/>
<text x="536.6" y="779" font-family="Arial" font-size="12" fill="#111827">111831.040 KiB</text>
<text x="24" y="815" font-family="Arial" font-size="12" fill="#111827">dFRIttata-PCS nodes=2 nv=22</text>
<rect x="260" y="798" width="158.3" height="20" fill="#d97706"/>
<text x="426.3" y="813" font-family="Arial" font-size="12" fill="#111827">65919.900 KiB</text>
<text x="24" y="849" font-family="Arial" font-size="12" fill="#111827">dPIP-FRI-PCS nodes=2 nv=22</text>
<rect x="260" y="832" width="162.7" height="20" fill="#d97706"/>
<text x="430.7" y="847" font-family="Arial" font-size="12" fill="#111827">67723.738 KiB</text>
<text x="24" y="883" font-family="Arial" font-size="12" fill="#111827">dePCS_Basefold nodes=2 nv=22</text>
<rect x="260" y="866" width="2.8" height="20" fill="#2563eb"/>
<text x="270.8" y="881" font-family="Arial" font-size="12" fill="#111827">1153.945 KiB</text>
<text x="24" y="917" font-family="Arial" font-size="12" fill="#111827">dePCS_Deepfold nodes=2 nv=22</text>
<rect x="260" y="900" width="1.9" height="20" fill="#2563eb"/>
<text x="269.9" y="915" font-family="Arial" font-size="12" fill="#111827">793.648 KiB</text>
<text x="24" y="951" font-family="Arial" font-size="12" fill="#111827">LigeSIS dLigesis nodes=2 nv=23</text>
<rect x="260" y="934" width="371.6" height="20" fill="#d97706"/>
<text x="639.6" y="949" font-family="Arial" font-size="12" fill="#111827">154716.160 KiB</text>
<text x="24" y="985" font-family="Arial" font-size="12" fill="#111827">dFRIttata-PCS nodes=2 nv=23</text>
<rect x="260" y="968" width="315.8" height="20" fill="#d97706"/>
<text x="583.8" y="983" font-family="Arial" font-size="12" fill="#111827">131483.338 KiB</text>
<text x="24" y="1019" font-family="Arial" font-size="12" fill="#111827">dPIP-FRI-PCS nodes=2 nv=23</text>
<rect x="260" y="1002" width="325.1" height="20" fill="#d97706"/>
<text x="593.1" y="1017" font-family="Arial" font-size="12" fill="#111827">135334.176 KiB</text>
<text x="24" y="1053" font-family="Arial" font-size="12" fill="#111827">dePCS_Basefold nodes=2 nv=23</text>
<rect x="260" y="1036" width="3.1" height="20" fill="#2563eb"/>
<text x="271.1" y="1051" font-family="Arial" font-size="12" fill="#111827">1286.070 KiB</text>
<text x="24" y="1087" font-family="Arial" font-size="12" fill="#111827">dePCS_Deepfold nodes=2 nv=23</text>
<rect x="260" y="1070" width="2.1" height="20" fill="#2563eb"/>
<text x="270.1" y="1085" font-family="Arial" font-size="12" fill="#111827">889.820 KiB</text>
<text x="24" y="1121" font-family="Arial" font-size="12" fill="#111827">LigeSIS dLigesis nodes=2 nv=24</text>
<rect x="260" y="1104" width="537.2" height="20" fill="#d97706"/>
<text x="805.2" y="1119" font-family="Arial" font-size="12" fill="#111827">223621.120 KiB</text>
<text x="24" y="1155" font-family="Arial" font-size="12" fill="#111827">dFRIttata-PCS nodes=2 nv=24</text>
<rect x="260" y="1138" width="630.7" height="20" fill="#d97706"/>
<text x="898.7" y="1153" font-family="Arial" font-size="12" fill="#111827">262578.307 KiB</text>
<text x="24" y="1189" font-family="Arial" font-size="12" fill="#111827">dPIP-FRI-PCS nodes=2 nv=24</text>
<rect x="260" y="1172" width="640.0" height="20" fill="#d97706"/>
<text x="908.0" y="1187" font-family="Arial" font-size="12" fill="#111827">266429.270 KiB</text>
<text x="24" y="1223" font-family="Arial" font-size="12" fill="#111827">dePCS_Basefold nodes=2 nv=24</text>
<rect x="260" y="1206" width="3.4" height="20" fill="#2563eb"/>
<text x="271.4" y="1221" font-family="Arial" font-size="12" fill="#111827">1429.898 KiB</text>
<text x="24" y="1257" font-family="Arial" font-size="12" fill="#111827">dePCS_Deepfold nodes=2 nv=24</text>
<rect x="260" y="1240" width="2.4" height="20" fill="#2563eb"/>
<text x="270.4" y="1255" font-family="Arial" font-size="12" fill="#111827">994.086 KiB</text>
</svg>
