<svg xmlns="http://www.w3.org/2000/svg" width="980" height="1280" viewBox="0 0 980 1280">
<rect width="100%" height="100%" fill="#ffffff"/>
<text x="24" y="32" font-family="Arial" font-size="18" fill="#111827">dePCS BaseFold vs DeepFold vs external PCS verify time</text>
<text x="24" y="54" font-family="Arial" font-size="12" fill="#4b5563">Verifier time by nv and node count; blocked external rows are omitted.</text>
<text x="24" y="101" font-family="Arial" font-size="12" fill="#111827">LigeSIS dLigesis nodes=2 nv=18</text>
<rect x="260" y="84" width="1.7" height="20" fill="#d97706"/>
<text x="269.7" y="99" font-family="Arial" font-size="12" fill="#111827">15.049 ms</text>
<text x="24" y="135" font-family="Arial" font-size="12" fill="#111827">dFRIttata-PCS nodes=2 nv=18</text>
<rect x="260" y="118" width="1.0" height="20" fill="#d97706"/>
<text x="269.0" y="133" font-family="Arial" font-size="12" fill="#111827">9.171 ms</text>
<text x="24" y="169" font-family="Arial" font-size="12" fill="#111827">dPIP-FRI-PCS nodes=2 nv=18</text>
<rect x="260" y="152" width="0.2" height="20" fill="#d97706"/>
<text x="268.2" y="167" font-family="Arial" font-size="12" fill="#111827">1.520 ms</text>
<text x="24" y="203" font-family="Arial" font-size="12" fill="#111827">dePCS_Basefold nodes=2 nv=18</text>
<rect x="260" y="186" width="6.0" height="20" fill="#2563eb"/>
<text x="274.0" y="201" font-family="Arial" font-size="12" fill="#111827">53.019 ms</text>
<text x="24" y="237" font-family="Arial" font-size="12" fill="#111827">dePCS_Deepfold nodes=2 nv=18</text>
<rect x="260" y="220" width="2.1" height="20" fill="#2563eb"/>
<text x="270.1" y="235" font-family="Arial" font-size="12" fill="#111827">18.697 ms</text>
<text x="24" y="271" font-family="Arial" font-size="12" fill="#111827">LigeSIS dLigesis nodes=2 nv=19</text>
<rect x="260" y="254" width="2.3" height="20" fill="#d97706"/>
<text x="270.3" y="269" font-family="Arial" font-size="12" fill="#111827">20.511 ms</text>
<text x="24" y="305" font-family="Arial" font-size="12" fill="#111827">dFRIttata-PCS nodes=2 nv=19</text>
<rect x="260" y="288" width="1.2" height="20" fill="#d97706"/>
<text x="269.2" y="303" font-family="Arial" font-size="12" fill="#111827">10.129 ms</text>
<text x="24" y="339" font-family="Arial" font-size="12" fill="#111827">dPIP-FRI-PCS nodes=2 nv=19</text>
<rect x="260" y="322" width="0.2" height="20" fill="#d97706"/>
<text x="268.2" y="337" font-family="Arial" font-size="12" fill="#111827">2.156 ms</text>
<text x="24" y="373" font-family="Arial" font-size="12" fill="#111827">dePCS_Basefold nodes=2 nv=19</text>
<rect x="260" y="356" width="11.2" height="20" fill="#2563eb"/>
<text x="279.2" y="371" font-family="Arial" font-size="12" fill="#111827">98.319 ms</text>
<text x="24" y="407" font-family="Arial" font-size="12" fill="#111827">dePCS_Deepfold nodes=2 nv=19</text>
<rect x="260" y="390" width="3.3" height="20" fill="#2563eb"/>
<text x="271.3" y="405" font-family="Arial" font-size="12" fill="#111827">29.235 ms</text>
<text x="24" y="441" font-family="Arial" font-size="12" fill="#111827">LigeSIS dLigesis nodes=2 nv=20</text>
<rect x="260" y="424" width="3.3" height="20" fill="#d97706"/>
<text x="271.3" y="439" font-family="Arial" font-size="12" fill="#111827">29.364 ms</text>
<text x="24" y="475" font-family="Arial" font-size="12" fill="#111827">dFRIttata-PCS nodes=2 nv=20</text>
<rect x="260" y="458" width="1.5" height="20" fill="#d97706"/>
<text x="269.5" y="473" font-family="Arial" font-size="12" fill="#111827">13.291 ms</text>
<text x="24" y="509" font-family="Arial" font-size="12" fill="#111827">dPIP-FRI-PCS nodes=2 nv=20</text>
<rect x="260" y="492" width="0.4" height="20" fill="#d97706"/>
<text x="268.4" y="507" font-family="Arial" font-size="12" fill="#111827">3.101 ms</text>
<text x="24" y="543" font-family="Arial" font-size="12" fill="#111827">dePCS_Basefold nodes=2 nv=20</text>
<rect x="260" y="526" width="41.9" height="20" fill="#2563eb"/>
<text x="309.9" y="541" font-family="Arial" font-size="12" fill="#111827">368.447 ms</text>
<text x="24" y="577" font-family="Arial" font-size="12" fill="#111827">dePCS_Deepfold nodes=2 nv=20</text>
<rect x="260" y="560" width="5.7" height="20" fill="#2563eb"/>
<text x="273.7" y="575" font-family="Arial" font-size="12" fill="#111827">50.520 ms</text>
<text x="24" y="611" font-family="Arial" font-size="12" fill="#111827">LigeSIS dLigesis nodes=2 nv=21</text>
<rect x="260" y="594" width="4.6" height="20" fill="#d97706"/>
<text x="272.6" y="609" font-family="Arial" font-size="12" fill="#111827">40.086 ms</text>
<text x="24" y="645" font-family="Arial" font-size="12" fill="#111827">dFRIttata-PCS nodes=2 nv=21</text>
<rect x="260" y="628" width="1.4" height="20" fill="#d97706"/>
<text x="269.4" y="643" font-family="Arial" font-size="12" fill="#111827">12.338 ms</text>
<text x="24" y="679" font-family="Arial" font-size="12" fill="#111827">dPIP-FRI-PCS nodes=2 nv=21</text>
<rect x="260" y="662" width="0.4" height="20" fill="#d97706"/>
<text x="268.4" y="677" font-family="Arial" font-size="12" fill="#111827">3.451 ms</text>
<text x="24" y="713" font-family="Arial" font-size="12" fill="#111827">dePCS_Basefold nodes=2 nv=21</text>
<rect x="260" y="696" width="90.8" height="20" fill="#2563eb"/>
<text x="358.8" y="711" font-family="Arial" font-size="12" fill="#111827">799.325 ms</text>
<text x="24" y="747" font-family="Arial" font-size="12" fill="#111827">dePCS_Deepfold nodes=2 nv=21</text>
<rect x="260" y="730" width="10.1" height="20" fill="#2563eb"/>
<text x="278.1" y="745" font-family="Arial" font-size="12" fill="#111827">89.124 ms</text>
<text x="24" y="781" font-family="Arial" font-size="12" fill="#111827">LigeSIS dLigesis nodes=2 nv=22</text>
<rect x="260" y="764" width="6.5" height="20" fill="#d97706"/>
<text x="274.5" y="779" font-family="Arial" font-size="12" fill="#111827">57.057 ms</text>
<text x="24" y="815" font-family="Arial" font-size="12" fill="#111827">dFRIttata-PCS nodes=2 nv=22</text>
<rect x="260" y="798" width="2.0" height="20" fill="#d97706"/>
<text x="270.0" y="813" font-family="Arial" font-size="12" fill="#111827">17.570 ms</text>
<text x="24" y="849" font-family="Arial" font-size="12" fill="#111827">dPIP-FRI-PCS nodes=2 nv=22</text>
<rect x="260" y="832" width="0.3" height="20" fill="#d97706"/>
<text x="268.3" y="847" font-family="Arial" font-size="12" fill="#111827">2.621 ms</text>
<text x="24" y="883" font-family="Arial" font-size="12" fill="#111827">dePCS_Basefold nodes=2 nv=22</text>
<rect x="260" y="866" width="167.8" height="20" fill="#2563eb"/>
<text x="435.8" y="881" font-family="Arial" font-size="12" fill="#111827">1476.276 ms</text>
<text x="24" y="917" font-family="Arial" font-size="12" fill="#111827">dePCS_Deepfold nodes=2 nv=22</text>
<rect x="260" y="900" width="25.6" height="20" fill="#2563eb"/>
<text x="293.6" y="915" font-family="Arial" font-size="12" fill="#111827">225.599 ms</text>
<text x="24" y="951" font-family="Arial" font-size="12" fill="#111827">LigeSIS dLigesis nodes=2 nv=23</text>
<rect x="260" y="934" width="15.3" height="20" fill="#d97706"/>
<text x="283.3" y="949" font-family="Arial" font-size="12" fill="#111827">134.484 ms</text>
<text x="24" y="985" font-family="Arial" font-size="12" fill="#111827">dFRIttata-PCS nodes=2 nv=23</text>
<rect x="260" y="968" width="1.9" height="20" fill="#d97706"/>
<text x="269.9" y="983" font-family="Arial" font-size="12" fill="#111827">16.300 ms</text>
<text x="24" y="1019" font-family="Arial" font-size="12" fill="#111827">dPIP-FRI-PCS nodes=2 nv=23</text>
<rect x="260" y="1002" width="0.4" height="20" fill="#d97706"/>
<text x="268.4" y="1017" font-family="Arial" font-size="12" fill="#111827">3.651 ms</text>
<text x="24" y="1053" font-family="Arial" font-size="12" fill="#111827">dePCS_Basefold nodes=2 nv=23</text>
<rect x="260" y="1036" width="479.7" height="20" fill="#2563eb"/>
<text x="747.7" y="1051" font-family="Arial" font-size="12" fill="#111827">4221.419 ms</text>
<text x="24" y="1087" font-family="Arial" font-size="12" fill="#111827">dePCS_Deepfold nodes=2 nv=23</text>
<rect x="260" y="1070" width="49.9" height="20" fill="#2563eb"/>
<text x="317.9" y="1085" font-family="Arial" font-size="12" fill="#111827">439.050 ms</text>
<text x="24" y="1121" font-family="Arial" font-size="12" fill="#111827">LigeSIS dLigesis nodes=2 nv=24</text>
<rect x="260" y="1104" width="21.9" height="20" fill="#d97706"/>
<text x="289.9" y="1119" font-family="Arial" font-size="12" fill="#111827">192.619 ms</text>
<text x="24" y="1155" font-family="Arial" font-size="12" fill="#111827">dFRIttata-PCS nodes=2 nv=24</text>
<rect x="260" y="1138" width="2.2" height="20" fill="#d97706"/>
<text x="270.2" y="1153" font-family="Arial" font-size="12" fill="#111827">19.560 ms</text>
<text x="24" y="1189" font-family="Arial" font-size="12" fill="#111827">dPIP-FRI-PCS nodes=2 nv=24</text>
<rect x="260" y="1172" width="0.5" height="20" fill="#d97706"/>
<text x="268.5" y="1187" font-family="Arial" font-size="12" fill="#111827">4.455 ms</text>
<text x="24" y="1223" font-family="Arial" font-size="12" fill="#111827">dePCS_Basefold nodes=2 nv=24</text>
<rect x="260" y="1206" width="640.0" height="20" fill="#2563eb"/>
<text x="908.0" y="1221" font-family="Arial" font-size="12" fill="#111827">5631.637 ms</text>
<text x="24" y="1257" font-family="Arial" font-size="12" fill="#111827">dePCS_Deepfold nodes=2 nv=24</text>
<rect x="260" y="1240" width="89.7" height="20" fill="#2563eb"/>
<text x="357.7" y="1255" font-family="Arial" font-size="12" fill="#111827">789.478 ms</text>
</svg>
