<svg xmlns="http://www.w3.org/2000/svg" width="1120" height="144" viewBox="0 0 1120 144">
<rect width="100%" height="100%" fill="#ffffff"/>
<text x="24" y="34" font-family="Arial" font-size="18" fill="#111827">dePCS opening phase breakdown</text>
<rect x="24.0" y="52" width="10" height="10" fill="#2563eb"/><text x="38.0" y="62" font-family="Arial" font-size="10" fill="#374151">worker_eval_commit</text>
<rect x="156.0" y="52" width="10" height="10" fill="#059669"/><text x="170.0" y="62" font-family="Arial" font-size="10" fill="#374151">column_open</text>
<rect x="288.0" y="52" width="10" height="10" fill="#d97706"/><text x="302.0" y="62" font-family="Arial" font-size="10" fill="#374151">f2_open</text>
<rect x="420.0" y="52" width="10" height="10" fill="#7c3aed"/><text x="434.0" y="62" font-family="Arial" font-size="10" fill="#374151">e1_sum</text>
<rect x="552.0" y="52" width="10" height="10" fill="#dc2626"/><text x="566.0" y="62" font-family="Arial" font-size="10" fill="#374151">e1_hu</text>
<rect x="684.0" y="52" width="10" height="10" fill="#0891b2"/><text x="698.0" y="62" font-family="Arial" font-size="10" fill="#374151">e1_e_r</text>
<rect x="816.0" y="52" width="10" height="10" fill="#4b5563"/><text x="830.0" y="62" font-family="Arial" font-size="10" fill="#374151">e1_f_u</text>
<rect x="948.0" y="52" width="10" height="10" fill="#f97316"/><text x="962.0" y="62" font-family="Arial" font-size="10" fill="#374151">e1_e_sys</text>
<rect x="1080.0" y="52" width="10" height="10" fill="#9333ea"/><text x="1094.0" y="62" font-family="Arial" font-size="10" fill="#374151">e2_sum</text>
<rect x="1212.0" y="52" width="10" height="10" fill="#16a34a"/><text x="1226.0" y="62" font-family="Arial" font-size="10" fill="#374151">e2_hu</text>
<rect x="1344.0" y="52" width="10" height="10" fill="#be123c"/><text x="1358.0" y="62" font-family="Arial" font-size="10" fill="#374151">e2_e_r</text>
<rect x="1476.0" y="52" width="10" height="10" fill="#0f766e"/><text x="1490.0" y="62" font-family="Arial" font-size="10" fill="#374151">e2_f_u</text>
<rect x="1608.0" y="52" width="10" height="10" fill="#ca8a04"/><text x="1622.0" y="62" font-family="Arial" font-size="10" fill="#374151">e2_e_sys</text>
<rect x="1740.0" y="52" width="10" height="10" fill="#64748b"/><text x="1754.0" y="62" font-family="Arial" font-size="10" fill="#374151">proof_size</text>
<text x="24" y="101.0" font-family="Arial" font-size="12" fill="#111827">protocol11 nv=24 w=2</text>
<rect x="270.0" y="86.0" width="0.0" height="20" fill="#2563eb"/>
<rect x="270.0" y="86.0" width="0.0" height="20" fill="#059669"/>
<rect x="270.0" y="86.0" width="0.0" height="20" fill="#d97706"/>
<rect x="270.0" y="86.0" width="0.0" height="20" fill="#7c3aed"/>
<rect x="270.0" y="86.0" width="0.0" height="20" fill="#dc2626"/>
<rect x="270.0" y="86.0" width="0.0" height="20" fill="#0891b2"/>
<rect x="270.0" y="86.0" width="0.0" height="20" fill="#4b5563"/>
<rect x="270.0" y="86.0" width="0.0" height="20" fill="#f97316"/>
<rect x="270.0" y="86.0" width="0.0" height="20" fill="#9333ea"/>
<rect x="270.0" y="86.0" width="0.0" height="20" fill="#16a34a"/>
<rect x="270.0" y="86.0" width="0.0" height="20" fill="#be123c"/>
<rect x="270.0" y="86.0" width="0.0" height="20" fill="#0f766e"/>
<rect x="270.0" y="86.0" width="0.0" height="20" fill="#ca8a04"/>
<rect x="270.0" y="86.0" width="0.0" height="20" fill="#64748b"/>
<text x="278.0" y="101.0" font-family="Arial" font-size="12" fill="#111827">0.000 ms</text>
</svg>
