<svg xmlns="http://www.w3.org/2000/svg" width="980" height="1280" viewBox="0 0 980 1280">
<rect width="100%" height="100%" fill="#ffffff"/>
<text x="24" y="32" font-family="Arial" font-size="18" fill="#111827">dePCS BaseFold vs DeepFold vs external PCS proof size</text>
<text x="24" y="54" font-family="Arial" font-size="12" fill="#4b5563">Verifier-received commitment plus PCS opening proof in KiB by nv and node count; blocked external rows are omitted.</text>
<text x="24" y="101" font-family="Arial" font-size="12" fill="#111827">LigeSIS dLigesis nodes=2 nv=18</text>
<rect x="260" y="84" width="71.6" height="20" fill="#d97706"/>
<text x="339.6" y="99" font-family="Arial" font-size="12" fill="#111827">218.510 KiB</text>
<text x="24" y="135" font-family="Arial" font-size="12" fill="#111827">dFRIttata-PCS nodes=2 nv=18</text>
<rect x="260" y="118" width="321.3" height="20" fill="#d97706"/>
<text x="589.3" y="133" font-family="Arial" font-size="12" fill="#111827">980.352 KiB</text>
<text x="24" y="169" font-family="Arial" font-size="12" fill="#111827">dPIP-FRI-PCS nodes=2 nv=18</text>
<rect x="260" y="152" width="44.0" height="20" fill="#d97706"/>
<text x="312.0" y="167" font-family="Arial" font-size="12" fill="#111827">134.360 KiB</text>
<text x="24" y="203" font-family="Arial" font-size="12" fill="#111827">dePCS_Basefold nodes=2 nv=18</text>
<rect x="260" y="186" width="230.8" height="20" fill="#2563eb"/>
<text x="498.8" y="201" font-family="Arial" font-size="12" fill="#111827">704.242 KiB</text>
<text x="24" y="237" font-family="Arial" font-size="12" fill="#111827">dePCS_Deepfold nodes=2 nv=18</text>
<rect x="260" y="220" width="148.4" height="20" fill="#2563eb"/>
<text x="416.4" y="235" font-family="Arial" font-size="12" fill="#111827">452.836 KiB</text>
<text x="24" y="271" font-family="Arial" font-size="12" fill="#111827">LigeSIS dLigesis nodes=2 nv=19</text>
<rect x="260" y="254" width="72.8" height="20" fill="#d97706"/>
<text x="340.8" y="269" font-family="Arial" font-size="12" fill="#111827">222.260 KiB</text>
<text x="24" y="305" font-family="Arial" font-size="12" fill="#111827">dFRIttata-PCS nodes=2 nv=19</text>
<rect x="260" y="288" width="359.7" height="20" fill="#d97706"/>
<text x="627.7" y="303" font-family="Arial" font-size="12" fill="#111827">1097.366 KiB</text>
<text x="24" y="339" font-family="Arial" font-size="12" fill="#111827">dPIP-FRI-PCS nodes=2 nv=19</text>
<rect x="260" y="322" width="52.1" height="20" fill="#d97706"/>
<text x="320.1" y="337" font-family="Arial" font-size="12" fill="#111827">159.020 KiB</text>
<text x="24" y="373" font-family="Arial" font-size="12" fill="#111827">dePCS_Basefold nodes=2 nv=19</text>
<rect x="260" y="356" width="263.9" height="20" fill="#2563eb"/>
<text x="531.9" y="371" font-family="Arial" font-size="12" fill="#111827">805.055 KiB</text>
<text x="24" y="407" font-family="Arial" font-size="12" fill="#111827">dePCS_Deepfold nodes=2 nv=19</text>
<rect x="260" y="390" width="173.1" height="20" fill="#2563eb"/>
<text x="441.1" y="405" font-family="Arial" font-size="12" fill="#111827">528.180 KiB</text>
<text x="24" y="441" font-family="Arial" font-size="12" fill="#111827">LigeSIS dLigesis nodes=2 nv=20</text>
<rect x="260" y="424" width="79.1" height="20" fill="#d97706"/>
<text x="347.1" y="439" font-family="Arial" font-size="12" fill="#111827">241.470 KiB</text>
<text x="24" y="475" font-family="Arial" font-size="12" fill="#111827">dFRIttata-PCS nodes=2 nv=20</text>
<rect x="260" y="458" width="412.9" height="20" fill="#d97706"/>
<text x="680.9" y="473" font-family="Arial" font-size="12" fill="#111827">1259.963 KiB</text>
<text x="24" y="509" font-family="Arial" font-size="12" fill="#111827">dPIP-FRI-PCS nodes=2 nv=20</text>
<rect x="260" y="492" width="60.1" height="20" fill="#d97706"/>
<text x="328.1" y="507" font-family="Arial" font-size="12" fill="#111827">183.270 KiB</text>
<text x="24" y="543" font-family="Arial" font-size="12" fill="#111827">dePCS_Basefold nodes=2 nv=20</text>
<rect x="260" y="526" width="302.3" height="20" fill="#2563eb"/>
<text x="570.3" y="541" font-family="Arial" font-size="12" fill="#111827">922.398 KiB</text>
<text x="24" y="577" font-family="Arial" font-size="12" fill="#111827">dePCS_Deepfold nodes=2 nv=20</text>
<rect x="260" y="560" width="202.1" height="20" fill="#2563eb"/>
<text x="470.1" y="575" font-family="Arial" font-size="12" fill="#111827">616.742 KiB</text>
<text x="24" y="611" font-family="Arial" font-size="12" fill="#111827">LigeSIS dLigesis nodes=2 nv=21</text>
<rect x="260" y="594" width="80.4" height="20" fill="#d97706"/>
<text x="348.4" y="609" font-family="Arial" font-size="12" fill="#111827">245.300 KiB</text>
<text x="24" y="645" font-family="Arial" font-size="12" fill="#111827">dFRIttata-PCS nodes=2 nv=21</text>
<rect x="260" y="628" width="470.4" height="20" fill="#d97706"/>
<text x="738.4" y="643" font-family="Arial" font-size="12" fill="#111827">1435.385 KiB</text>
<text x="24" y="679" font-family="Arial" font-size="12" fill="#111827">dPIP-FRI-PCS nodes=2 nv=21</text>
<rect x="260" y="662" width="70.5" height="20" fill="#d97706"/>
<text x="338.5" y="677" font-family="Arial" font-size="12" fill="#111827">215.200 KiB</text>
<text x="24" y="713" font-family="Arial" font-size="12" fill="#111827">dePCS_Basefold nodes=2 nv=21</text>
<rect x="260" y="696" width="340.7" height="20" fill="#2563eb"/>
<text x="608.7" y="711" font-family="Arial" font-size="12" fill="#111827">1039.648 KiB</text>
<text x="24" y="747" font-family="Arial" font-size="12" fill="#111827">dePCS_Deepfold nodes=2 nv=21</text>
<rect x="260" y="730" width="230.8" height="20" fill="#2563eb"/>
<text x="498.8" y="745" font-family="Arial" font-size="12" fill="#111827">704.352 KiB</text>
<text x="24" y="781" font-family="Arial" font-size="12" fill="#111827">LigeSIS dLigesis nodes=2 nv=22</text>
<rect x="260" y="764" width="87.0" height="20" fill="#d97706"/>
<text x="355.0" y="779" font-family="Arial" font-size="12" fill="#111827">265.570 KiB</text>
<text x="24" y="815" font-family="Arial" font-size="12" fill="#111827">dFRIttata-PCS nodes=2 nv=22</text>
<rect x="260" y="798" width="521.4" height="20" fill="#d97706"/>
<text x="789.4" y="813" font-family="Arial" font-size="12" fill="#111827">1590.840 KiB</text>
<text x="24" y="849" font-family="Arial" font-size="12" fill="#111827">dPIP-FRI-PCS nodes=2 nv=22</text>
<rect x="260" y="832" width="80.7" height="20" fill="#d97706"/>
<text x="348.7" y="847" font-family="Arial" font-size="12" fill="#111827">246.300 KiB</text>
<text x="24" y="883" font-family="Arial" font-size="12" fill="#111827">dePCS_Basefold nodes=2 nv=22</text>
<rect x="260" y="866" width="379.2" height="20" fill="#2563eb"/>
<text x="647.2" y="881" font-family="Arial" font-size="12" fill="#111827">1157.102 KiB</text>
<text x="24" y="917" font-family="Arial" font-size="12" fill="#111827">dePCS_Deepfold nodes=2 nv=22</text>
<rect x="260" y="900" width="260.6" height="20" fill="#2563eb"/>
<text x="528.6" y="915" font-family="Arial" font-size="12" fill="#111827">795.227 KiB</text>
<text x="24" y="951" font-family="Arial" font-size="12" fill="#111827">LigeSIS dLigesis nodes=2 nv=23</text>
<rect x="260" y="934" width="88.3" height="20" fill="#d97706"/>
<text x="356.3" y="949" font-family="Arial" font-size="12" fill="#111827">269.490 KiB</text>
<text x="24" y="985" font-family="Arial" font-size="12" fill="#111827">dFRIttata-PCS nodes=2 nv=23</text>
<rect x="260" y="968" width="582.7" height="20" fill="#d97706"/>
<text x="850.7" y="983" font-family="Arial" font-size="12" fill="#111827">1777.916 KiB</text>
<text x="24" y="1019" font-family="Arial" font-size="12" fill="#111827">dPIP-FRI-PCS nodes=2 nv=23</text>
<rect x="260" y="1002" width="93.4" height="20" fill="#d97706"/>
<text x="361.4" y="1017" font-family="Arial" font-size="12" fill="#111827">285.110 KiB</text>
<text x="24" y="1053" font-family="Arial" font-size="12" fill="#111827">dePCS_Basefold nodes=2 nv=23</text>
<rect x="260" y="1036" width="426.5" height="20" fill="#2563eb"/>
<text x="694.5" y="1051" font-family="Arial" font-size="12" fill="#111827">1301.227 KiB</text>
<text x="24" y="1087" font-family="Arial" font-size="12" fill="#111827">dePCS_Deepfold nodes=2 nv=23</text>
<rect x="260" y="1070" width="293.4" height="20" fill="#2563eb"/>
<text x="561.4" y="1085" font-family="Arial" font-size="12" fill="#111827">895.227 KiB</text>
<text x="24" y="1121" font-family="Arial" font-size="12" fill="#111827">LigeSIS dLigesis nodes=2 nv=24</text>
<rect x="260" y="1104" width="95.3" height="20" fill="#d97706"/>
<text x="363.3" y="1119" font-family="Arial" font-size="12" fill="#111827">290.820 KiB</text>
<text x="24" y="1155" font-family="Arial" font-size="12" fill="#111827">dFRIttata-PCS nodes=2 nv=24</text>
<rect x="260" y="1138" width="640.0" height="20" fill="#d97706"/>
<text x="908.0" y="1153" font-family="Arial" font-size="12" fill="#111827">1952.754 KiB</text>
<text x="24" y="1189" font-family="Arial" font-size="12" fill="#111827">dPIP-FRI-PCS nodes=2 nv=24</text>
<rect x="260" y="1172" width="106.3" height="20" fill="#d97706"/>
<text x="374.3" y="1187" font-family="Arial" font-size="12" fill="#111827">324.480 KiB</text>
<text x="24" y="1223" font-family="Arial" font-size="12" fill="#111827">dePCS_Basefold nodes=2 nv=24</text>
<rect x="260" y="1206" width="470.6" height="20" fill="#2563eb"/>
<text x="738.6" y="1221" font-family="Arial" font-size="12" fill="#111827">1436.023 KiB</text>
<text x="24" y="1257" font-family="Arial" font-size="12" fill="#111827">dePCS_Deepfold nodes=2 nv=24</text>
<rect x="260" y="1240" width="327.5" height="20" fill="#2563eb"/>
<text x="595.5" y="1255" font-family="Arial" font-size="12" fill="#111827">999.289 KiB</text>
</svg>
