<svg xmlns="http://www.w3.org/2000/svg" width="980" height="560" viewBox="0 0 980 560" shape-rendering="geometricPrecision">
<style>
text { font-family: Arial, Helvetica, sans-serif; fill: #111827; }
.title { font-size: 18px; font-weight: 700; }
.subtitle { font-size: 11px; fill: #4b5563; }
.axis-label { font-size: 13px; font-weight: 600; fill: #111827; }
.tick-label { font-size: 11px; fill: #374151; }
.grid { stroke: #e5e7eb; stroke-width: 0.8; }
.axis { stroke: #111827; stroke-width: 1.3; }
.series-line { stroke-width: 2.5; stroke-linecap: round; stroke-linejoin: round; }
.ideal-line { stroke: #6b7280; stroke-width: 1.8; stroke-dasharray: 6 5; stroke-linecap: round; }
.marker { stroke-width: 2; }
.legend-box { fill: #ffffff; stroke: #d1d5db; stroke-width: 0.9; }
.legend-entry text { font-size: 12px; fill: #111827; }
</style>
<rect width="100%" height="100%" fill="#ffffff" />
<text class="title" x="92" y="34">Verify time by circuit size</text>
<text class="subtitle" x="92" y="54">Verified positive runs. Circuit size is nv = 2^n; lines connect measured runs only.</text>
<line class="axis" x1="92.0" y1="436.0" x2="732.0" y2="436.0" />
<line class="axis" x1="92.0" y1="76.0" x2="92.0" y2="436.0" />
<text class="axis-label" x="412.0" y="526" text-anchor="middle">Circuit exponent n (nv = 2^n)</text>
<text class="axis-label" x="24" y="256.0" text-anchor="middle" transform="rotate(-90 24,256.0)">Verifier time (ms)</text>
<line class="grid" x1="92.0" y1="436.0" x2="732.0" y2="436.0" />
<text class="tick-label" x="82.0" y="440.0" text-anchor="end">0</text>
<line class="grid" x1="92.0" y1="346.0" x2="732.0" y2="346.0" />
<text class="tick-label" x="82.0" y="350.0" text-anchor="end">10</text>
<line class="grid" x1="92.0" y1="256.0" x2="732.0" y2="256.0" />
<text class="tick-label" x="82.0" y="260.0" text-anchor="end">20</text>
<line class="grid" x1="92.0" y1="166.0" x2="732.0" y2="166.0" />
<text class="tick-label" x="82.0" y="170.0" text-anchor="end">30</text>
<line class="grid" x1="92.0" y1="76.0" x2="732.0" y2="76.0" />
<text class="tick-label" x="82.0" y="80.0" text-anchor="end">40</text>
<line class="grid" x1="92.0" y1="76.0" x2="92.0" y2="436.0" />
<line class="axis" x1="92.0" y1="436.0" x2="92.0" y2="441.0" />
<text class="tick-label" x="92.0" y="455.0" text-anchor="middle"><tspan x="92.0">n=2</tspan><tspan x="92.0" dy="13">nv=4</tspan></text>
<line class="grid" x1="732.0" y1="76.0" x2="732.0" y2="436.0" />
<line class="axis" x1="732.0" y1="436.0" x2="732.0" y2="441.0" />
<text class="tick-label" x="732.0" y="455.0" text-anchor="middle"><tspan x="732.0">n=3</tspan><tspan x="732.0" dy="13">nv=8</tspan></text>
<rect class="legend-box" x="750" y="66" width="208" height="126.0" />
<polyline class="series-line" fill="none" stroke="#D55E00" points="92.0,291.9 732.0,163.9" />
<circle class="marker" cx="92.0" cy="291.9" r="4.2" fill="#ffffff" stroke="#D55E00" />
<circle class="marker" cx="732.0" cy="163.9" r="4.2" fill="#ffffff" stroke="#D55E00" />
<g class="legend-entry" transform="translate(765,88)"><line x1="0" y1="0" x2="24" y2="0" stroke="#D55E00" stroke-width="2.4" /><circle class="marker" cx="12.0" cy="0.0" r="4.2" fill="#ffffff" stroke="#D55E00" />
<text x="34" y="4">Plonkish w=1</text></g>
<polyline class="series-line" fill="none" stroke="#D55E00" stroke-dasharray="7 4" points="92.0,293.6 732.0,162.7" />
<rect class="marker" x="87.8" y="289.4" width="8.4" height="8.4" fill="#ffffff" stroke="#D55E00" />
<rect class="marker" x="727.8" y="158.5" width="8.4" height="8.4" fill="#ffffff" stroke="#D55E00" />
<g class="legend-entry" transform="translate(765,112)"><line x1="0" y1="0" x2="24" y2="0" stroke="#D55E00" stroke-width="2.4" stroke-dasharray="7 4" /><rect class="marker" x="7.8" y="-4.2" width="8.4" height="8.4" fill="#ffffff" stroke="#D55E00" />
<text x="34" y="4">Plonkish w=2</text></g>
<polyline class="series-line" fill="none" stroke="#0072B2" points="92.0,298.1 732.0,213.0" />
<circle class="marker" cx="92.0" cy="298.1" r="4.2" fill="#ffffff" stroke="#0072B2" />
<circle class="marker" cx="732.0" cy="213.0" r="4.2" fill="#ffffff" stroke="#0072B2" />
<g class="legend-entry" transform="translate(765,136)"><line x1="0" y1="0" x2="24" y2="0" stroke="#0072B2" stroke-width="2.4" /><circle class="marker" cx="12.0" cy="0.0" r="4.2" fill="#ffffff" stroke="#0072B2" />
<text x="34" y="4">R1CS w=1</text></g>
<polyline class="series-line" fill="none" stroke="#0072B2" stroke-dasharray="7 4" points="92.0,286.9 732.0,204.7" />
<rect class="marker" x="87.8" y="282.7" width="8.4" height="8.4" fill="#ffffff" stroke="#0072B2" />
<rect class="marker" x="727.8" y="200.5" width="8.4" height="8.4" fill="#ffffff" stroke="#0072B2" />
<g class="legend-entry" transform="translate(765,160)"><line x1="0" y1="0" x2="24" y2="0" stroke="#0072B2" stroke-width="2.4" stroke-dasharray="7 4" /><rect class="marker" x="7.8" y="-4.2" width="8.4" height="8.4" fill="#ffffff" stroke="#0072B2" />
<text x="34" y="4">R1CS w=2</text></g>
</svg>
